<?xml version="1.0" encoding="UTF-8"?>
<svg id="Layer_1" data-name="Layer 1" xmlns="http://www.w3.org/2000/svg" viewBox="0 0 1080 1080" style="fill:#ff5565">
  <path d="m273.75,992.88H73.15c3.56-4.17,6.82-8.67,10.74-12.47,40.17-38.94,80.45-77.76,121.79-117.67V216.9h133.67v209.74c74.42-71.77,146.38-141.17,217.26-209.53h184.99c-135.52,130.78-269.21,259.79-401.72,387.67v128.49c178.63-172.31,355.34-342.77,534.71-515.8v645.79h-334.01c45.41-43.83,89.02-85.92,133.4-128.76h66.19v-192c-4.92,4.53-8.38,7.6-11.71,10.81-67.74,65.35-135.52,130.67-203.18,196.09-83.89,81.11-167.69,162.31-251.52,243.47Z"/>
</svg>