<svg width="201" height="110" viewBox="0 0 201 110" fill="none" xmlns="http://www.w3.org/2000/svg">
<path d="M150.336 46.6993C152.852 46.1259 155.464 46.044 157.99 46.5686C161.96 47.3926 165.071 49.462 167.687 52.0745C170.909 55.2925 174.102 59.7364 174.327 66.7996C174.815 82.1099 163.878 87.0833 156.358 87.0833C146.593 87.0833 134.19 80.7447 135.167 65.0443C135.441 60.6619 137.171 49.6999 150.335 46.6993H150.336Z" fill="#FAACEA"/>
<path d="M33.2608 53.2856C32.9639 53.5197 32.6934 53.7859 32.4551 54.0794C25.7578 62.3187 24.874 73.2114 34.3867 81.2323C43.0821 88.5646 52.6367 88.5471 59.2696 82.2201C59.4131 82.0826 59.5508 81.9383 59.6836 81.7901C64.7637 76.1301 66.586 72.6946 64.6309 62.2943C64.5205 61.7063 64.3487 61.13 64.1162 60.578C62.3125 56.2901 60.1367 53.5792 56.5664 50.9852C52.835 48.2742 48.1514 47.1576 43.626 48.0616C40.4258 48.7003 37.0576 50.2918 33.2598 53.2856H33.2608Z" fill="#FAACEA"/>
<path d="M52.3681 67.1624C52.4756 66.0458 53.0947 65.0453 54.0019 64.3841C55.7324 63.1223 57.4941 63.3134 59.581 64.7518C59.581 64.7518 64.7256 68.1513 72.6054 71.5341C80.2324 74.8078 90.4219 78.4316 100.987 78.2092C110.265 78.0142 118.049 75.9644 125.304 73.6259C135.15 70.4527 142.187 66.3218 143.666 65.4188C143.895 65.2794 144.139 65.1672 144.394 65.0853C146.406 64.4339 147.69 64.862 148.688 65.7153C149.327 66.2614 149.728 67.0347 149.827 67.8694C150.04 69.6774 149.615 71.03 148.155 72.1641C148.155 72.1641 142.882 76.4549 128.917 81.0382C120.819 83.6956 112.022 86.5967 100.987 86.4992C87.6074 86.3812 80.3056 83.6644 71.8857 80.6482C63.5303 77.6544 56.126 72.5288 54.4053 71.384C53.2334 70.6038 52.2109 68.79 52.3672 67.1634L52.3681 67.1624Z" fill="#48546A"/>
<path d="M51.5381 25.8695C51.0332 25.7476 50.5068 25.7486 49.999 25.8568C46.6094 26.5804 42.6396 30.1096 42.4922 42.9078C42.3945 51.3918 44.1123 57.4633 49.9141 57.5354C57.7266 57.633 58.2148 48.0762 58.7031 41.445C58.9736 31.5362 54.9951 26.7033 51.5381 25.8695Z" fill="#48546A"/>
<path d="M158.608 41.5855C158.607 41.1437 158.582 40.701 158.533 40.2621C157.564 31.5714 154.476 25.6589 149.719 26.1347C145.485 26.557 142.567 32.6948 142.883 40.9574C143.304 51.9584 145.606 56.9572 149.668 57.8222C150.717 58.0455 151.809 57.947 152.822 57.5988C156.803 56.2316 158.636 53.7498 158.608 41.5864V41.5855Z" fill="#48546A"/>
<path d="M77.6484 52.172C77.6484 52.172 83.3125 42.4202 99.1328 42.0301C114.953 41.6401 122.375 50.1241 124.23 53.0496C126.247 56.2287 130.578 66.4096 113.098 72.9433C95.3935 79.5608 83.0195 71.6755 80.8711 70.4078C79.0976 69.3614 70.2265 61.9238 77.6484 52.172Z" fill="#B45599"/>
<path d="M90.7089 51.8755C91.5966 51.4396 92.5302 51.1071 93.4961 50.8906C97.1035 50.0812 105.292 48.9685 112.708 53.1471C122.571 58.7057 116.321 62.9964 111.927 64.8493C107.532 66.7021 101.673 67.8723 96.5947 67.3847C91.5166 66.8971 82.0439 64.3617 83.3769 58.2707C84.1806 54.5963 88.8554 52.7863 90.7099 51.8755H90.7089Z" fill="#FCAAEA"/>
</svg>
