<svg width="717" height="1196" viewBox="0 0 717 1196" fill="none" xmlns="http://www.w3.org/2000/svg">
<g clip-path="url(#clip0_101_140)">
<path d="M706.21 186.879C707.337 188.835 708.469 190.791 709.595 192.748C711.614 195.809 712.214 200.012 716.475 201.256L716.627 201.353C717.441 203.261 719.196 204.232 720.916 204.791C734.212 209.134 739.682 220.065 743.8 232.005C747.011 241.31 747.506 250.944 746.125 260.674C745.303 266.456 746.913 269.683 753.224 271.899C761.73 274.886 769.519 279.833 766.718 291.473C766.206 293.594 767.276 295.75 770.007 296.179C770.684 296.594 771.368 297.013 772.045 297.428C775.433 299.922 777.397 302.819 777.262 307.479C776.832 322.203 772.528 334.839 759.986 343.73C755.593 346.841 753.86 351.362 755.123 356.52C757.947 368.039 760.999 379.509 764.163 390.945C765.745 396.67 768.807 399.067 774.893 395.561C783.717 390.48 791.891 392.509 799.519 398.717C813.229 409.877 823.454 423.703 831.361 439.398C841.943 460.403 839.358 479.286 823.859 497.256C816.721 505.533 806.742 509.884 799.572 517.881C796.909 520.855 793.633 523.912 788.567 519.643C785.579 517.127 784.107 521.106 783.739 523.789C782.165 535.278 780.421 546.66 773.511 556.516C772.762 557.581 773.368 559.597 773.344 561.175C772.959 562.364 772.576 563.559 772.196 564.747C766.447 577.087 762.525 590.553 754.378 601.456C737.647 623.857 720.449 646.081 694.057 658.422C692.115 659.329 690.399 661.212 691.252 663.641C692.034 665.867 694.27 665.555 696.122 665.181C700.039 664.388 703.368 666.204 707 667.057C719.082 669.892 729.438 676.893 741.167 680.457C742.559 681.288 743.952 682.123 745.344 682.954C746.223 684.808 747.638 685.091 749.408 684.349C750.213 684.788 751.017 685.228 751.817 685.668C753.188 690.656 756.236 693.455 761.64 693.157C762.814 693.624 763.988 694.087 765.158 694.555C768.328 697.996 771.86 700.82 776.772 701.245C778.191 702.079 779.61 702.913 781.024 703.748C785.828 708.064 790.011 713.329 797.022 714.298C798.053 715.034 799.077 715.768 800.108 716.504C800.541 719.595 802.611 720.525 805.399 720.514C806.104 720.953 806.807 721.387 807.512 721.826C810.683 725.849 815.298 727.777 819.594 730.169C821.42 732.461 823.245 734.753 825.071 737.046C825.09 738.47 825.682 739.48 827.105 739.908C828.476 742.294 829.843 744.682 831.214 747.063C831.54 748.196 831.864 749.324 832.19 750.458C830.824 752.59 832.471 753.111 833.933 753.733C835.481 758.138 837.1 762.551 832.834 766.458C830.705 766.122 830.237 767.413 830.209 769.138C829.286 769.824 828.363 770.509 827.439 771.19C826.07 770.842 825.063 771.308 824.415 772.556C823.319 772.862 822.223 773.173 821.121 773.479C818.521 773.226 815.92 772.973 813.316 772.726C811.721 770.887 809.426 771.194 807.361 770.72C793.664 767.566 779.551 768.448 765.709 766.157C750.178 763.582 747.411 767.671 752.152 783.004C752.23 783.262 752.271 783.535 752.373 783.782C764.11 811.923 768.901 842.263 779.891 870.639C785.63 885.451 791.724 900.137 795.285 915.698C797.654 926.055 795.066 934.801 787.193 941.985C784.41 944.523 781.804 947.256 779.008 949.782C776.83 951.745 776.806 953.544 779.433 954.794C786.099 957.977 787.539 964.439 789.616 970.507C792.652 979.369 793.377 988.916 797.641 997.412C797.927 998.813 798.218 1000.21 798.505 1001.61C796.569 1003.84 798.016 1006.21 798.131 1008.56C798.656 1019.27 799.961 1030 798.881 1040.73C797.871 1050.79 798.947 1051.94 808.577 1049.73C817.241 1047.74 825.903 1045.81 834.874 1045.78C839.269 1045.76 841.106 1048.87 842.294 1052.14C843.549 1055.59 839.985 1056.47 838.022 1058.09C835.195 1060.42 831.696 1061.15 828.271 1061.75C812.074 1064.61 796.068 1068.28 780.126 1072.32C766.731 1075.72 755.389 1071.03 747.945 1059.57C738.272 1044.68 725.239 1034.35 707.287 1031.92C696.846 1030.5 686.584 1034.1 676.167 1034.92C658.907 1036.29 642.569 1042.57 625.697 1045.97C617.706 1047.57 611.868 1050.52 607.405 1056.93C605.958 1057.32 604.512 1057.72 603.07 1058.11C592.912 1059.2 583.339 1068.17 581.739 1078.08C580.818 1079.33 579.896 1080.58 578.975 1081.83C575.733 1084.92 575.196 1089.29 573.47 1093.12C568.913 1103.23 575.56 1116.64 563.198 1124.97C560.819 1126.57 558.977 1130.63 555.002 1131.85C540.347 1136.32 525.284 1139.34 510.987 1145.17C505.05 1147.59 499.276 1151.7 491.789 1149.45C485.696 1147.61 483.55 1143.69 487.427 1138.63C489.104 1136.44 491.496 1135.23 494.138 1134.37C501.806 1131.87 509.45 1129.31 517.06 1126.66C523.081 1124.56 523.91 1120.77 518.981 1116.86C516.979 1115.27 515.202 1112.89 512.175 1112.89C500.389 1090.61 494.171 1066.31 489.482 1041.96C487.477 1031.55 486.169 1025.07 474.766 1023.09C467.698 1021.87 463.794 1016.45 462.29 1008.87C455.34 973.919 447.496 939.168 436.102 905.344C431.88 892.811 432.876 879.394 428.163 866.812C421.869 849.998 422.105 849.757 409.244 861.759C398.402 871.876 387.124 881.532 375.828 891.144C368.261 897.579 359.502 897.435 350.582 894.453C346.321 893.03 345.485 889.21 344.909 885.399C343.032 873.046 345.926 861.423 349.715 849.743C361.929 812.06 381.019 778.273 406.275 747.87C407.136 746.833 407.911 745.709 408.885 744.799C411.586 742.267 416.115 739.735 414.677 736.022C413.346 732.579 408.021 732.935 404.498 732.736C385.635 731.673 368.737 723.925 351.328 717.847C334.153 711.854 320.253 700.949 306.791 689.098C297.734 681.123 288.168 673.829 281.199 663.73C278.226 659.423 274.012 662.135 270.079 662.649C246.27 665.746 213.628 659.61 199.485 636.887C190.358 622.224 189.731 605.63 191.285 589.112C192.489 576.344 193.046 563.237 200.407 551.826C203.543 546.961 206.79 542.382 212.524 540.488C216.513 539.171 217.284 536.718 216.082 532.984C211.296 518.078 206.308 503.225 202.895 487.925C202.145 484.549 199.856 483.226 196.951 482.022C180.199 475.083 170.727 456.569 173.018 436.019C173.949 427.685 175.237 420.187 181.534 414.098C185.39 410.372 181.219 407.896 179.377 405.224C168.898 390.036 162.788 373.919 167.901 355.098C168.996 351.083 170.156 346.94 173.162 344.353C180.457 338.079 180.566 329.999 180.307 321.543C179.649 299.897 193.026 282.765 213.927 278.292C220.668 276.847 227.5 278.19 233.858 279.374C245.629 281.565 254.903 277.175 258.393 266.015C263.49 249.737 275.872 235.187 301.588 238.029C306.353 238.556 311.101 238.121 315.935 239.566C320.376 240.894 322.957 236.954 321.343 233.234C315.597 219.969 320.499 208.341 326.585 197.236C332.21 186.973 335.07 177.409 332.783 165.075C329.714 148.532 330.009 131.369 334.552 114.723C338.585 99.9504 346.646 95.7601 361.169 100.867C369.492 103.796 376.755 108.603 382.676 114.916C392.663 125.573 403.641 123.092 415.396 119.098C425.264 115.743 432.015 109.76 437.492 100.787C442.177 93.1157 449.165 87.2329 458.115 83.3645C466.172 79.8791 471.255 82.5825 475.751 88.0371C483.763 97.7654 489.249 109.333 490.923 121.498C493.028 136.761 496.353 147.591 515.218 147.546C526.046 147.522 535.681 154.225 543.146 162.458C548.064 167.88 552.649 169.575 560.053 166.719C579.989 159.033 594.978 167.374 605.971 182.216C611.634 189.859 616.672 192.632 625.324 190.14C627.092 189.631 629.078 189.884 630.965 189.785C633.527 191.562 635.767 191.963 637.069 188.356C637.332 188.018 637.528 187.646 637.653 187.245C641.457 185.009 638.436 180.143 641.879 177.32C660.677 161.904 685.704 162.379 699.282 180.296C701.18 182.805 703.871 184.711 706.199 186.897L706.21 186.879ZM448.734 144.221C447.887 141.969 446.553 141.518 444.667 143.131C442.958 142.952 441.25 142.772 439.536 142.595L438.951 142.408C437.717 141.278 436.315 140.75 434.641 141.219L428.11 140.075C424.425 138.784 420.737 138.97 417.05 140.076C407.174 142.429 397.1 144.114 387.856 148.617C385.666 147.351 384.904 148.509 384.634 150.509C383.24 151.103 381.847 151.698 380.452 152.287C374.785 152.287 370.797 155.317 366.928 159.135C356.289 169.641 351.372 182.623 349.303 197.092C346.742 214.99 353.43 230.429 365.331 242.183C381.117 257.777 401.964 258.048 422.75 254.73C426.457 254.139 430.05 252.854 435.587 251.39C430.264 257.763 425.231 259.803 419.694 261.329C415.736 262.423 410.917 262.072 408.374 266.45C407.735 267.097 407.101 267.742 406.462 268.385C397.462 268.167 384.861 276.858 381.554 285.168C377.496 295.374 371.51 304.13 361.563 309.576C355.133 311.88 349.863 304.112 343.31 307.463C343.068 307.064 342.796 306.69 342.493 306.339C341.807 304.738 341.121 303.138 340.435 301.538C339.313 298.066 338.184 294.591 337.062 291.12C337.107 286.914 338.314 282.154 332.194 280.876C327.631 273.973 323.999 266.476 317.098 261.232C305.777 252.625 291.584 253.88 282.674 264.901C273.539 276.202 271.315 288.273 278.208 301.707C283.628 312.268 280.631 317.138 268.753 318.281C262.252 318.905 255.948 320.671 250.019 323.179C240.605 327.16 232.883 332.732 230.855 344.094C227.836 361.032 243.522 385.081 260.527 387.603C265.035 388.272 269.551 388.492 273.832 390.188C274.78 395.03 275.724 399.873 276.672 404.715C274.062 408.621 272.021 412.776 271.133 417.431C267.726 420.391 268.794 424.87 267.379 428.508C266.319 429.55 266.278 430.786 266.716 432.105C265.532 433.053 265.319 434.239 265.851 435.613L265.861 435.594C262.016 444.672 260.214 454.146 260.321 463.998C260.442 465.053 260.562 466.104 260.684 467.16C259.544 470.068 257.123 472.684 258.665 476.192C258.879 477.775 259.092 479.358 259.301 480.943C257.654 485.992 256.444 491.058 258.766 496.246C259.133 498.351 259.501 500.456 259.866 502.556C258.934 508.736 258.714 514.885 260.586 520.954C260.623 522.027 260.658 523.095 260.695 524.168C259.499 527.301 260.605 529.857 262.698 532.168C262.371 533.852 262.804 535.33 263.881 536.643C263.932 543.42 265.274 549.85 268.996 555.64C269.175 561.726 270.988 567.333 273.934 572.613C274.876 576.574 276.564 580.117 279.707 582.839C280.189 583.81 280.666 584.777 281.149 585.748C280.768 587.73 281.165 589.391 283.082 590.419C283.713 591.892 284.344 593.365 284.972 594.844C285.716 599.787 288.342 603.539 292.328 606.427C293.694 609.645 293.061 614.195 298.051 614.994C300.497 619.913 303.234 624.561 308.745 626.678C309.123 627.351 309.496 628.025 309.873 628.698C313.128 633.277 316.158 638.078 321.515 640.604C322.082 642.331 323.18 643.385 325.079 643.43C334.149 653.242 344.473 661.255 357.16 665.901L357.439 666.042C359.776 671.185 365.354 671.245 369.473 673.384C393.034 685.598 418.288 692.162 444.484 696.028C457.847 697.999 471.322 698.621 484.576 698.371C494.091 698.19 503.871 699.573 513.423 697.169C524.12 694.479 534.941 692.323 546.035 691.972C553.167 691.748 559.897 689.984 566.062 686.379C572.869 682.399 580.173 679.302 587.738 677.634C598.859 675.178 608.081 668.841 617.556 663.52C639.765 651.045 660.438 636.137 678.182 617.631C690.05 605.25 702.464 593.23 709.434 577.035C720.305 564.108 725.422 548.283 731.508 532.963C733.161 528.794 735.309 524.59 733.738 519.818C734.122 519.522 734.252 519.136 734.118 518.672C735.737 517.556 736.484 516.207 735.306 514.332C735.396 513.005 735.493 511.681 735.584 510.354C737.884 508.674 739.626 506.852 737.222 503.961C737.546 503.555 737.69 503.086 737.654 502.57C739.769 500.708 741.458 498.17 741.272 495.596C740.751 488.335 741.395 481.164 741.76 473.952C741.8 473.127 740.674 472.247 740.084 471.389C739.798 469.152 739.511 466.915 739.23 464.677C741.025 451.679 739.486 439.152 733.948 427.188C733.745 426.401 733.548 425.613 733.345 424.825C732.541 410.228 724.828 398.05 719.74 384.906C715.565 374.121 710.218 363.852 703.84 354.638C693.86 340.227 682.184 326.779 668.961 315.154C664.558 311.283 661.242 304.507 653.649 305.016C652.578 304.464 651.506 303.906 650.435 303.354C649.482 298.634 644.501 296.04 643.958 291.102L650.122 286.34C653.673 285.512 658.382 287.158 659.817 281.808C661.455 279.614 663.094 277.42 664.728 275.228C667.486 273.931 668.586 271.927 667.41 268.948C667.549 268.539 667.681 268.125 667.792 267.707C671.367 264.965 671.179 261.73 669.023 258.242C668.457 250.772 665.941 243.737 664.203 236.524C665.228 235.113 664.974 234.071 663.308 233.439C662.336 231.452 661.364 229.464 660.387 227.479C660.511 222.537 657.398 222.272 653.7 222.861C652.622 222.363 651.539 221.866 650.461 221.367C641.763 217.417 633.557 218.808 625.666 223.637C619.435 224.985 613.204 226.332 606.974 227.679C604.445 223.88 603.57 219.734 602.633 215.214C600.815 206.424 601.474 195.314 589.013 192.658C588.379 192.21 587.747 191.768 587.114 191.32C586.112 188.642 584.123 187.544 581.343 187.706C580.627 187.343 579.91 186.976 579.194 186.613C572.898 181.23 560.209 182.786 554.261 189.676C553.592 190.667 552.929 191.657 552.26 192.649C550.153 192.89 548.656 194.306 548.149 196.048C544.979 206.949 541.307 217.779 541.885 229.372C541.93 230.301 542.89 231.188 543.43 232.096C543.006 237.353 545.117 242.219 545.743 247.314C544.193 248.528 543.647 249.944 544.885 251.703C545.515 254.227 546.152 256.755 546.782 259.279C536.901 262.269 527.124 266.43 517.372 258.412C515.351 256.75 511.81 256.876 508.867 257.638C502.739 256.887 498.849 251.914 493.58 249.538C490.878 245.123 486.218 245.493 482.048 245.092C476.61 244.563 471.125 244.536 465.773 244.295C465.687 243.493 465.546 243.115 465.653 243.024C466.661 242.184 467.691 241.366 468.749 240.597C478.358 233.596 488.461 227.047 492.256 214.756L492.311 214.662C500.769 205.416 497.718 195.58 493.793 185.702C493.837 182.569 493.256 179.611 491.414 176.997C490.563 173.244 489.471 169.649 485.486 167.953C484.639 167.037 483.787 166.121 482.94 165.205C482.564 162.945 481.437 161.387 479.036 161.013C478.558 160.777 478.085 160.539 477.607 160.302C477.518 159.785 477.433 159.266 477.345 158.753C476.999 156.706 475.788 155.843 473.738 156.143C471.4 152.588 467.306 151.915 463.887 150.138C462.922 148.276 461.514 147.802 459.645 148.805L456.241 147.324C454.533 144.423 451.612 144.527 448.813 144.321L448.713 144.258L448.734 144.221ZM365.737 285.607C367.837 283.727 371.015 282.467 369.738 278.647C371.166 276.814 372.597 274.985 374.031 273.151C376.004 272.345 376.688 270.972 375.858 268.947C372.309 263.615 367.194 261.425 360.938 261.544C358.854 262.252 357.972 263.489 359.118 265.635C359.045 267.068 358.966 268.503 358.899 269.939C358.477 269.893 358.124 270.029 357.838 270.341C351.473 275.712 356.692 282.116 356.415 288.007C356.308 290.348 357.792 292.82 360.799 292.661C363.831 292.501 364.455 290.107 364.567 287.545C364.959 286.9 365.346 286.256 365.738 285.611L365.737 285.607ZM476.311 123.594C476.093 122.47 475.87 121.346 475.651 120.221C476.247 114.719 468.583 99.7433 463.639 98.538C456.779 96.8667 455.601 103.968 452.094 107.444C450.39 109.134 448.565 110.741 447.084 112.615C442.37 118.606 443.088 121.244 450.131 123.666C452.339 124.422 454.51 125.856 457.067 125.028C461.602 127.308 466.135 129.584 470.665 131.866C472.48 135.233 475.554 137.853 478.934 135.845C482.797 133.553 479.606 129.676 478.822 126.589C478.533 125.456 477.179 124.59 476.308 123.601L476.311 123.594ZM499.661 231.077C496.676 233.269 497.463 235.452 500.386 236.288C508.261 238.537 514.976 243.001 522.023 246.851C523.743 247.789 525.584 248.348 527.335 247.118C529.215 245.796 528.704 243.845 528.332 241.978C526.427 232.364 520.18 225.933 512.512 220.628C510.801 219.446 508.578 218.273 507.56 221.642C504.245 224.216 501.612 227.361 499.66 231.072L499.661 231.077ZM364.036 121.341L363.99 121.306C362.868 119.51 362.021 117.459 360.588 115.972C354.981 110.133 351.408 111.056 348.087 118.219C342.422 130.438 345.147 143.118 345.349 155.678C345.374 157.043 345.654 158.42 347.36 158.652C349.105 158.89 350.551 158.135 351.544 156.779C354.076 153.314 356.364 149.698 357.619 145.535C358.424 145.238 359.229 144.941 360.028 144.646C365.278 144.462 367.756 139.435 372.179 137.693C375.449 136.403 379.996 135.863 379.433 130.631C378.949 126.134 375.157 124.713 371.671 123.438C369.222 122.545 366.899 120.857 364.045 121.338L364.036 121.341ZM505.29 742.555C503.663 744.136 504.024 746.038 504.592 747.848C507.828 758.166 508.867 768.98 511.61 779.376C525.104 830.434 536.362 882.162 555.183 931.655C561.042 947.061 563.59 963.426 570.271 978.54C572.124 982.728 574.74 985.127 578.751 984.193C587.046 982.263 595.842 981.852 603.339 977.101C607.086 976.1 610.826 975.096 614.572 974.095C624.196 972.797 633.623 970.773 642.481 966.619C644.599 966.159 646.712 965.701 648.83 965.241C656.285 967.79 662.407 965.079 668.024 960.373C670.052 959.695 672.08 959.012 674.104 958.335C679.371 958.993 684.228 957.021 688.969 955.41C695.959 953.037 704.052 953.642 709.843 947.949C722.256 944.232 735.696 948.563 747.928 943.013C750.561 941.818 753.658 941.441 756.588 941.15C773.8 939.444 779.787 930.672 775.773 913.713C770.679 892.192 760.976 872.206 755.258 850.888C753.534 844.464 749.87 838.579 747.741 832.231C745.877 826.69 738.502 826.474 737.372 820.566C738.417 818.535 739.466 816.497 740.512 814.465C741.821 803.824 738.468 794.341 733.261 785.322C730.764 774.898 728.163 764.497 725.825 754.041C724.787 749.397 724.841 746.082 731.766 746.007C739.299 745.929 745.864 748.95 752.948 750.095C755.114 751.787 758.31 754.054 760.073 751.933C763.498 747.806 767.414 748.999 771.023 749.827C783.564 752.703 796.762 750.429 809.047 754.803C813.747 756.477 816.441 753.422 818.448 750.516C820.889 746.98 816.846 745.668 814.877 743.666C798.528 727.017 777.578 717.245 757.929 705.552C754.585 703.561 750.864 701.397 746.553 703.283C740.784 699.494 734.334 697.168 728.124 694.279C710.051 685.864 690.829 681.952 671.621 677.758C667.019 676.751 662.672 678.026 658.121 678.788C641.333 681.601 627.922 693.233 611.334 696.245C603.273 697.708 597.21 700.031 600.765 710.18C601.237 711.527 599.903 713.44 600.211 714.925C601.719 722.262 594.729 729.308 599.746 736.774C608.18 749.334 614.084 763.319 621.572 776.397C635.107 800.021 646.129 824.899 658.608 849.045C659.843 851.43 660.645 854.025 660.431 856.835C658.555 881.385 650.637 904.331 639.666 925.951C631.174 942.689 615.26 946.543 598.075 937.61C586.492 926.523 574.28 916.097 563.549 904.118C557.471 897.332 549.989 890.38 548.863 881.765C547.564 871.818 545.488 861.735 545.953 851.422C546.423 841.028 543.439 830.67 544.784 820.125C545.061 817.97 544.637 815.213 542.275 813.656C542.097 812.605 541.92 811.558 541.737 810.508C544.882 807.428 543.927 803.476 543.717 799.858C542.875 785.476 542.808 771.099 543.235 756.702C543.373 752.151 543.999 746.404 540.719 743.561C533.714 737.487 530.539 729.271 525.911 721.844C523.611 718.152 520.72 717.498 517.414 720.721C516.369 720.907 515.327 721.099 514.283 721.285C506.077 719.139 501.687 721.104 501.88 726.828C503.009 732.074 504.133 737.322 505.262 742.568L505.29 742.555ZM553.167 978.11C547.479 963.311 541.893 948.48 537.303 933.222C534.837 925.024 532.524 916.649 529.328 908.654C519.787 884.767 515.255 859.503 509.3 834.684C505.712 819.735 502.581 804.644 497.719 790.089C491.372 771.086 485.095 752.207 485.57 731.848C485.686 726.814 483.754 725.275 478.584 726.437C472.307 727.849 465.768 728.048 459.419 729.205C451.941 730.567 444.737 732.849 439.56 738.958C424.623 756.59 410.222 774.56 397.452 793.948C382.295 816.957 372.177 841.925 364.22 868.008C363.759 869.523 362.591 871.072 364.69 872.173C366.143 872.934 367.232 871.984 368.24 871.045C370.01 869.39 371.786 867.733 373.548 866.068C385.461 854.832 397.074 843.26 411.154 834.598C421.143 828.453 431.723 831.611 436.061 842.573C438.539 848.829 441.128 855.203 442.358 861.768C446.949 886.217 455.023 909.787 460.264 934.033C464.366 953.014 471.539 971.204 473.923 990.629C475.085 1000.12 484.515 1007.63 494.311 1008.16C504.101 1008.68 513.651 1007.43 522.982 1004.2C528.767 1002.21 534.57 999.774 540.933 1003.01C543.714 1004.42 546.508 1003.06 549.167 1001.2C558.429 994.756 556.212 986.607 553.162 978.111L553.167 978.11ZM561.878 873.627C562.694 881.368 568.997 884.952 573.349 889.961C584.491 902.799 597.457 913.593 610.732 924.059C612.584 925.519 615.191 927.726 616.804 924.44C619.807 918.339 625.331 914.299 628.412 908.055C634.085 896.56 636.125 884.049 639.946 872.093C641.937 865.864 646.027 859.281 640.915 851.414C634.076 840.892 628.813 829.292 623.443 817.887C614.747 799.422 605.097 781.408 595.846 763.251C587.43 746.724 582.874 729.366 578.084 711.876C577.087 708.245 575.451 705.156 571.842 705.921C562.09 707.988 551.911 707.604 542.452 711.155C539.425 712.291 537.376 714.304 537.263 717.677C537.129 721.664 539.993 724.087 543.146 724.341C549.845 724.888 550.507 729.559 551.275 734.375C551.78 737.558 551.476 740.923 552.333 743.986C560.624 773.606 558.183 804.112 559.995 834.262C560.784 847.371 561.264 860.503 561.883 873.625L561.878 873.627ZM817.546 455.647C814.983 452.871 815.026 448.261 813.312 444.342C805.613 426.768 795.545 411.787 774.07 409.674C771.614 409.429 768.587 409.651 769.656 412.165C772.707 419.315 768.785 426.968 772.76 434.195C783.525 453.78 784.466 475.562 785.2 497.257C785.286 499.846 783.61 502.854 786.758 504.523C790.402 506.456 791.896 503.139 794.013 501.182C795.559 499.753 797.519 498.757 799.332 497.621C812.38 489.427 821.184 469.752 817.549 455.64L817.546 455.647ZM238.416 571.905C237.866 569.822 237.299 567.738 236.764 565.651C234.119 555.288 228.925 553.534 220.8 560.426C219.418 561.601 218.577 563.431 217.533 564.99C210.081 576.156 209.716 588.698 210.571 601.442C211.155 610.117 214.331 617.896 218.745 625.327C227.655 640.326 242.921 642.514 257.982 644.882C264.361 645.887 266.511 642.665 263.619 636.655C261.076 631.367 257.17 626.692 254.957 621.302C248.347 605.222 241.03 589.335 238.411 571.906L238.416 571.905ZM757.73 470.709C758.876 477.054 754.437 482.495 754.769 487.83C755.57 500.747 753.494 512.721 750.433 525.307C740.664 565.439 720.238 598.98 691.547 627.963C686.39 633.173 681.922 639.199 675.458 643.025C673.266 644.319 670.72 646.122 672.332 648.523C673.526 650.294 676.92 650.249 679.008 648.74C689.353 641.261 700.966 635.674 710.591 627.102C726.129 613.253 737.633 596.453 745.614 577.485C750.383 566.15 753.397 554.044 756.707 542.143C758.919 534.201 760.996 526.089 761.797 517.921C762.832 507.357 761.292 496.696 762.982 486.007C763.783 480.923 762.143 475.113 757.731 470.714L757.73 470.709ZM411.957 713.895C414.195 713.057 416.734 713.216 416.885 710.843C417.105 707.479 414.093 708.454 412.2 707.955C406.255 706.384 400.244 705.003 394.396 703.122C380.052 698.515 367.059 691.023 353.581 684.442C327.12 671.517 307.286 651.507 288.463 629.873C286.221 627.297 286.17 620.342 282.531 622.365C278.695 624.498 284.872 629.035 284.726 632.979C284.699 633.69 285.279 634.493 285.734 635.14C296.823 650.845 309.989 664.819 324.553 677.12C344.21 693.719 366.367 706.425 391.893 711.951C398.584 713.399 405.606 713.319 411.95 713.892L411.957 713.895Z" fill="#674447"/>
<path d="M803.463 1036.15C820.339 1031.32 837.539 1028.44 855.074 1027.53C860.519 1027.25 865.841 1028.14 871.079 1029.48C878.771 1031.45 883.849 1036.31 885.961 1043.94C888.118 1051.74 885.735 1058.4 879.697 1063.56C868.928 1072.75 856.133 1078.54 843.349 1084.18C813.922 1097.15 782.923 1105.3 751.925 1113.44C722.155 1121.26 692.52 1129.64 662.614 1136.9C627.343 1145.46 591.638 1152.04 555.979 1158.83C536.69 1162.5 517.495 1166.85 498.423 1171.76C482.028 1175.98 465.106 1177.89 448.054 1175.53C438.134 1174.15 431.505 1167.79 430.211 1158.54C428.991 1149.8 434.124 1141.46 443.61 1137.97C466.352 1129.6 489.409 1122.2 512.921 1116.27C517.303 1119.03 518.452 1121.15 512.381 1123.53C508.643 1125 504.99 1126.66 501.162 1127.96C496.605 1129.52 492.028 1131.31 487.905 1133.75C482.012 1137.24 479.083 1149.39 483.503 1150.91C491.726 1153.76 499.317 1158.5 509.444 1153.49C524.526 1146.04 539.732 1138.33 556.495 1134.71C566.302 1132.59 570.459 1124.35 574.187 1116.22C577.127 1109.8 573.574 1102.21 577.382 1095.81C588.679 1093.3 599.363 1088.68 610.469 1085.73C634.872 1079.25 658.975 1071.61 684.012 1067.45C702.301 1064.41 719.143 1055.66 737.357 1051.91C740.039 1054.82 743.204 1057.21 744.851 1061.1C749.896 1073.01 763.961 1080.08 776.443 1076.56C791.266 1072.38 806.508 1071.26 821.672 1069.8C830.516 1068.95 838.638 1068.24 843.275 1059.11C844.692 1056.32 850.187 1054.54 846.575 1050.73C842.954 1046.92 841.71 1039.29 833.306 1041.56C826.87 1043.3 820.163 1044.16 813.526 1045.03C804.024 1046.27 803.382 1045.57 803.475 1036.15L803.463 1036.15Z" fill="#BDC9DC"/>
<path d="M803.464 1036.15C803.376 1045.57 804.013 1046.26 813.515 1045.02C820.152 1044.16 826.857 1043.3 833.295 1041.56C841.704 1039.28 842.942 1046.91 846.564 1050.73C850.173 1054.54 844.681 1056.32 843.264 1059.11C838.627 1068.24 830.503 1068.95 821.661 1069.8C806.497 1071.26 791.25 1072.38 776.432 1076.56C763.952 1080.08 749.885 1073 744.84 1061.09C743.193 1057.21 740.028 1054.82 737.346 1051.91C728.986 1044.19 720.056 1038.19 708.14 1036.56C695.727 1034.86 684.064 1037.79 672.643 1040.86C657.129 1045.04 640.787 1043.95 625.425 1050.43C619.939 1052.74 614.226 1057.24 607.416 1056.93C611.88 1050.53 617.717 1047.58 625.709 1045.97C642.581 1042.58 658.919 1036.29 676.178 1034.93C686.595 1034.1 696.857 1030.51 707.298 1031.92C725.25 1034.35 738.284 1044.68 747.956 1059.58C755.397 1071.04 766.737 1075.72 780.137 1072.32C796.074 1068.28 812.085 1064.62 828.282 1061.75C831.707 1061.15 835.211 1060.42 838.034 1058.09C839.998 1056.48 843.561 1055.6 842.306 1052.14C841.118 1048.88 839.282 1045.77 834.885 1045.78C825.92 1045.81 817.252 1047.75 808.588 1049.73C798.952 1051.94 797.878 1050.8 798.892 1040.73C799.972 1030 798.668 1019.28 798.142 1008.56C798.027 1006.21 796.585 1003.84 798.516 1001.62C802.583 1007.86 801.477 1015.01 802 1021.86C802.364 1026.64 801.723 1031.51 803.454 1036.15L803.464 1036.15Z" fill="#A89FAA"/>
<path d="M773.344 561.175C773.363 559.598 772.763 557.586 773.511 556.516C780.421 546.66 782.165 535.278 783.738 523.789C784.107 521.106 785.578 517.122 788.567 519.643C793.639 523.916 796.909 520.855 799.572 517.881C806.742 509.884 816.721 505.534 823.859 497.256C839.358 479.286 841.943 460.403 831.361 439.398C823.454 423.703 813.234 409.876 799.519 398.717C791.889 392.504 783.712 390.482 774.893 395.561C768.802 399.068 765.745 396.67 764.163 390.945C760.999 379.509 757.948 368.044 755.123 356.52C753.86 351.362 755.594 346.846 759.985 343.73C772.528 334.839 776.831 322.198 777.262 307.479C777.397 302.819 775.433 299.922 772.045 297.428C777.983 295.969 779.58 299.882 780.675 304.402C783.922 317.843 776.503 337.568 764.917 345.144C759.673 348.574 757.436 352.461 759.75 358.613C763.445 368.436 763.312 379.271 767.719 388.964C769.087 391.971 770.406 393.205 773.786 392.049C789.159 386.787 799.768 389.933 809.899 401.534C819.074 412.043 826.879 423.513 834.528 435.071C849.156 457.183 842.581 489.907 821.159 505.122C814.02 510.194 807.519 516.148 800.578 521.509C797.299 524.041 795.073 529.302 789.039 525.347C786.87 523.923 786.965 527.724 786.666 529.217C784.814 538.461 782.706 547.59 777.999 555.913C776.798 558.033 775.975 560.369 773.341 561.165L773.344 561.175Z" fill="#A89FAA"/>
<path d="M577.371 1095.81C573.561 1102.2 577.114 1109.79 574.176 1116.22C570.45 1124.36 566.292 1132.59 556.484 1134.71C539.719 1138.32 524.515 1146.04 509.432 1153.49C499.306 1158.49 491.714 1153.76 483.492 1150.91C479.071 1149.38 482.001 1137.23 487.894 1133.75C492.023 1131.32 496.594 1129.52 501.151 1127.96C504.984 1126.65 508.637 1125 512.37 1123.53C518.441 1121.14 517.292 1119.02 512.91 1116.27C512.67 1115.14 512.425 1114.01 512.185 1112.89C515.207 1112.89 516.988 1115.27 518.99 1116.86C523.921 1120.77 523.092 1124.56 517.07 1126.66C509.46 1129.31 501.811 1131.87 494.148 1134.36C491.505 1135.23 489.114 1136.44 487.437 1138.63C483.559 1143.68 485.699 1147.61 491.799 1149.44C499.285 1151.69 505.06 1147.59 510.997 1145.17C525.294 1139.33 540.357 1136.32 555.012 1131.84C558.986 1130.63 560.834 1126.56 563.208 1124.96C575.57 1116.64 568.923 1103.22 573.479 1093.12C575.206 1089.29 575.743 1084.91 578.985 1081.82C580.642 1086.74 575.823 1090.91 577.371 1095.81Z" fill="#A89FAA"/>
<path d="M741.172 680.456C729.439 676.898 719.087 669.891 707.004 667.056C703.373 666.203 700.04 664.393 696.126 665.18C694.275 665.554 692.038 665.861 691.256 663.64C690.406 661.216 692.116 659.334 694.061 658.421C720.453 646.08 737.652 623.855 754.383 601.455C762.53 590.551 766.447 577.087 772.2 564.746C775.551 571.675 771.464 577.532 768.703 583.018C756.95 606.373 741.666 626.952 721.629 644.224C716.484 648.664 710.179 651.281 705.473 656.666C700.887 661.909 704.006 662.015 707.486 663.029C717.311 665.893 726.989 669.058 735.408 675.116C737.536 676.645 740.29 677.557 741.177 680.455L741.172 680.456Z" fill="#AC73A2"/>
<path d="M770.006 296.175C767.274 295.746 766.205 293.59 766.717 291.468C769.513 279.829 761.722 274.877 753.222 271.895C746.912 269.679 745.302 266.452 746.124 260.669C747.506 250.944 747.009 241.305 743.798 232C739.681 220.06 734.212 209.134 720.915 204.787C719.194 204.222 717.44 203.256 716.626 201.348C729.256 199.056 734.11 209.146 740.908 216.388C752.929 229.193 751.548 244.872 750.581 260.39C750.35 264.129 750.556 266.282 754.491 267.823C761.106 270.416 766.448 274.559 770.24 281.051C772.082 284.201 773.934 285.461 770.115 288.415C767.907 290.123 770.059 293.533 770.001 296.176L770.006 296.175Z" fill="#A89FAA"/>
<path d="M706.21 186.879C703.886 184.692 701.196 182.785 699.292 180.277C685.715 162.36 660.693 161.884 641.89 177.301C638.451 180.123 641.471 184.985 637.664 187.226C634.677 180.579 636.593 177.308 642.886 172.497C654.681 163.483 666.768 160.762 680.583 163.748C692.654 166.36 700.395 174.883 706.87 184.723C707.133 185.121 706.448 186.148 706.201 186.886L706.21 186.879Z" fill="#A89FAA"/>
<path d="M716.48 201.255C712.214 200.012 711.618 195.808 709.6 192.746C714.528 193.452 715.319 197.499 716.48 201.255Z" fill="#A89FAA"/>
<path d="M637.084 188.336C635.783 191.943 633.542 191.542 630.98 189.765C632.746 188.152 634.834 187.895 637.084 188.336Z" fill="#A89FAA"/>
<path d="M735.595 510.335C735.504 511.663 735.407 512.986 735.316 514.314C733.448 515.359 733.251 516.862 734.13 518.658C734.26 519.128 734.134 519.508 733.75 519.804C731.584 520.498 731.326 522.526 730.742 524.257C725.1 540.937 719.294 557.538 709.561 572.424C708.632 573.842 708.572 575.465 709.436 577.024C706.837 576.975 705.879 578.978 704.543 580.687C691.747 597.034 679.774 614.089 662.918 626.826C655.561 632.386 649.217 639.35 641.604 644.478C633.046 650.245 624.135 655.853 615.009 660.405C606.018 664.893 598.239 671.858 588.057 674.107C578.6 676.197 569.403 678.932 560.879 684.012C556.383 686.693 550.814 687.718 545.313 687.79C537.474 687.886 529.484 688.342 522.362 691.569C510.762 696.827 498.38 694.45 486.745 694.603C472.141 694.799 457.084 694.974 442.487 692.252C429.559 689.84 416.616 687.191 403.982 683.582C388.033 679.026 373.455 670.592 357.45 666.024L357.171 665.882C348.609 656.441 337.216 650.644 327.361 642.874C326.982 642.575 325.863 643.213 325.092 643.417C323.191 643.367 322.092 642.312 321.527 640.59C321.467 632.886 315.693 630.77 309.885 628.684C309.508 628.011 309.135 627.337 308.767 626.662C308.666 619.594 303.059 617.575 298.069 614.984C293.08 614.185 293.712 609.635 292.346 606.417C292.93 600.629 289.822 597.183 284.99 594.834C284.359 593.361 283.728 591.888 283.1 590.409C285.054 587.774 284.42 586.213 281.167 585.738C280.684 584.767 280.208 583.8 279.725 582.829C281.299 577.447 279.459 573.986 273.953 572.603C271.006 567.323 269.193 561.716 269.015 555.63C269.985 548.578 268.51 542.183 263.904 536.632C262.827 535.319 262.394 533.841 262.722 532.157C264.775 528.807 263.847 526.21 260.718 524.157C260.681 523.084 260.646 522.016 260.61 520.943C265.913 514.596 265.294 508.474 259.89 502.545C259.522 500.44 259.155 498.335 258.79 496.234C262.849 491.267 263.944 486.201 259.324 480.931C259.11 479.348 258.897 477.765 258.688 476.18C261.5 473.65 265.791 471.449 260.707 467.149C260.585 466.093 260.465 465.042 260.344 463.986C267.699 455.594 265.619 445.36 265.885 435.583L265.874 435.601C267.997 434.883 269.446 434 266.734 432.094C266.295 430.771 266.338 429.54 267.398 428.498C274.067 426.641 271.394 421.619 271.151 417.421C272.04 412.766 274.074 408.608 276.684 404.701C280.602 403.771 284.488 402.644 288.447 401.95C305.947 398.886 323.504 396.059 340.498 390.706C358.025 385.18 361.32 381.198 361.86 362.814C362.362 345.659 362.122 328.479 362.206 311.314C368.47 312.302 371.571 308.975 375.008 303.978C382.307 293.367 385.939 280.12 398.118 272.718C400.854 271.054 405.757 273.358 406.491 268.377C407.13 267.73 407.763 267.084 408.403 266.442C421.081 264.925 433.158 260.914 445.105 256.81C460.916 251.376 476.389 245 493.62 249.512C498.884 251.889 502.775 256.862 508.903 257.613C509.744 259.96 511.846 260.535 513.896 261.27C525.398 265.388 534.229 271.852 539.095 283.999C543.978 296.188 551.963 306.891 559.076 317.971C561.91 322.388 565.31 324.432 570.333 324.224C580.297 323.814 590.342 323.555 599.836 320.174C616.596 314.21 633.345 308.228 650.461 303.336C651.533 303.889 652.605 304.446 653.676 304.999C659.661 310.659 665.445 316.551 671.672 321.932C684.32 332.852 694.963 345.932 703.173 359.933C714.45 379.151 725.497 398.972 730.504 421.219C730.865 422.821 731.591 424.275 733.368 424.814C733.571 425.601 733.769 426.39 733.971 427.177C735 439.581 736.293 451.952 738.628 464.19C738.663 464.381 739.033 464.509 739.248 464.667C739.535 466.904 739.821 469.141 740.101 471.374C736.181 481.523 738.558 492.167 737.671 502.555C737.708 503.076 737.563 503.54 737.234 503.948C734.416 505.497 734.005 507.66 735.601 510.339L735.595 510.335ZM455.644 562.681C452.441 559.455 449.772 560.791 447.282 563.661C445.753 563.966 444.225 564.27 442.696 564.569C435.186 558.949 427.748 563.984 420.283 564.716C419.346 564.77 418.408 564.823 417.466 564.878C416.62 562.831 415.247 562.111 413.169 563.18C412.712 563.28 412.251 563.307 411.791 563.256C411.16 558.162 407.81 558.994 404.44 559.885C402.786 556.276 397.998 556.952 396.047 553.747C398.607 544.678 394.649 537.341 389.797 530.241C388.374 524.038 384.492 518.878 380.418 514.683C376.581 510.726 372.771 504.286 365.105 506.764L365.095 506.767C364.28 504.06 362.574 503.891 360.385 505.116C359.159 505.571 358.216 505.242 357.565 504.095C353.741 497.522 347.138 501.038 342.222 500.798C331.125 500.262 322.376 506.342 315.331 514.731C312.201 518.044 309.071 521.358 305.946 524.669C297.417 524.164 293.673 530.125 290.258 536.399C289.111 538.505 288.377 540.838 287.458 543.067C281.516 557.424 281.191 571.626 291.439 583.99C303.833 598.94 319.91 605.234 339.44 600.761C341.522 600.284 343.66 599.961 345.786 599.793C356.041 598.99 364.415 594.833 372.336 588.03C377.513 583.588 380.383 577.421 385.785 573.455C393.2 579.137 401.254 582.658 410.795 583.815C422.028 585.182 433.125 585.045 444.375 584.868C460.597 584.606 476.647 582.025 492.376 579.461C515.905 575.623 539.01 568.565 561.878 561.528C576.715 556.961 591.05 550.418 605.267 544.201C622.306 536.75 637.682 525.791 651.642 513.21C654.642 516.905 658.186 518.937 663.25 519.423C673.829 520.426 683.751 519.181 693.889 515.65C711.462 509.524 725.739 500.332 730.55 481.224C732.697 472.716 734.129 463.976 729.744 455.318C721.63 439.315 707.695 431.583 691.243 427.134C689.177 423.134 685.807 421.581 681.402 421.363C675.27 421.055 669.105 420.702 663.043 419.803C644.409 417.044 623.065 435.992 618.982 451.912C616.079 463.243 620.207 474.229 620.504 485.397C620.695 492.604 622.527 499.199 626.846 505.037C625.198 507.811 623.91 511.51 620.745 512.304C608.126 515.476 598.538 525.105 585.501 527.752C575.672 529.745 566.511 534.584 558.811 541.491C554.378 542.936 549.951 544.384 545.521 545.823C543.026 543.145 536.964 550.045 536.321 542.4C541.781 540.762 547.236 539.126 552.695 537.484C557.749 537.572 562.134 536.44 564.283 531.184C565.759 530.426 567.236 529.668 568.709 528.916C576.162 525.732 581.411 519.814 586.408 513.859C592.649 506.423 592.643 499.976 587.162 493.042C577.985 481.43 566.731 473.936 551.151 475.21C550.884 474.997 550.58 474.841 550.249 474.744C548.725 468.499 544.342 471.429 541.247 472.367C517.954 479.427 494.61 486.375 471.589 494.246C465.948 496.173 458.969 497.65 455.87 504.286C444.828 511.036 439.026 526.139 442.447 539.203C444.553 547.25 454.555 553.688 463.169 552.547C465.346 552.234 467.563 551.59 469.507 553.278C470.442 554.808 471.421 556.125 473.138 554.069C474.163 553.887 475.181 553.702 476.203 553.511C477.723 557.85 474.957 558.444 471.777 558.365C469.162 558.299 466.557 557.889 464.837 560.53C461.775 561.255 458.716 561.974 455.654 562.7L455.644 562.681ZM397.816 308.929C396.133 306.778 394.035 307.989 392.095 308.544C390.527 308.995 388.783 309.955 389.837 311.873C391.247 314.444 393.589 312.926 395.517 312.422C397.105 312.007 398.555 311.209 397.816 308.929Z" fill="#D7E2F4"/>
<path d="M740.533 814.465C739.487 816.497 738.438 818.534 737.396 820.56C731.619 827.163 726.467 834.479 719.932 840.227C705.656 852.782 701.4 868.143 703.593 886.468C705.942 906.138 707.401 925.917 709.246 945.647C702.499 949.937 694.519 950.47 687.183 952.966C682.735 954.477 677.381 953.911 674.124 958.335C672.096 959.013 670.068 959.696 668.04 960.374C661.386 960.997 655.063 962.91 648.841 965.243C646.723 965.703 644.61 966.162 642.492 966.621C632.794 967.639 623.206 969.07 614.583 974.097C610.837 975.098 607.097 976.102 603.35 977.103C596.16 975.955 589.629 978.911 582.936 980.575C578.156 981.764 575.773 980.702 573.74 975.874C563.603 951.739 558.076 926.135 549.533 901.506C548.889 899.647 547.365 896.944 549.979 895.775C552.354 894.716 553.647 897.481 554.914 899.032C563.102 909.03 571.9 918.471 581.486 927.095C586.336 931.463 590.784 936.935 598.093 937.6C615.279 946.538 631.193 942.684 639.685 925.945C650.652 904.327 658.57 881.381 660.45 856.83C660.664 854.02 659.858 851.426 658.628 849.04C646.149 824.894 635.127 800.016 621.592 776.391C614.099 763.315 608.201 749.333 599.765 736.769C594.753 729.301 601.744 722.256 600.231 714.92C599.927 713.434 601.257 711.522 600.785 710.175C597.23 700.025 603.299 697.707 611.353 696.24C627.94 693.223 641.346 681.592 658.14 678.782C662.686 678.022 667.033 676.748 671.641 677.753C690.853 681.946 710.071 685.859 728.144 694.273C734.349 697.164 740.802 699.484 746.572 703.277C753.535 718.223 759.666 733.289 752.965 750.101C745.883 748.961 739.316 745.935 731.783 746.013C724.858 746.088 724.804 749.403 725.842 754.047C728.181 764.508 730.786 774.903 733.277 785.323C733.837 795.496 736.787 805.086 740.53 814.476L740.533 814.465ZM747.142 738.548C745.343 736.06 743.497 734.924 740.973 736.453C740.638 736.657 740.56 738.091 740.904 738.478C742.554 740.344 744.514 740.163 747.142 738.548Z" fill="#FBFAFA"/>
<path d="M553.168 978.115C556.218 986.611 558.435 994.76 549.173 1001.21C546.514 1003.06 543.719 1004.42 540.939 1003.01C534.576 999.778 528.779 1002.21 522.988 1004.21C513.657 1007.43 504.102 1008.69 494.317 1008.16C484.522 1007.64 475.093 1000.13 473.929 990.632C471.545 971.208 464.377 953.016 460.27 934.036C455.029 909.791 446.95 886.222 442.365 861.771C441.134 855.207 438.541 848.834 436.067 842.577C431.73 831.615 421.148 828.452 411.161 834.602C397.081 843.268 385.468 854.841 373.555 866.072C371.792 867.736 370.017 869.393 368.246 871.049C367.243 871.987 366.149 872.938 364.696 872.176C362.602 871.074 363.765 869.527 364.227 868.012C372.183 841.929 382.303 816.966 397.458 793.952C410.228 774.564 424.63 756.599 439.566 738.961C444.744 732.853 451.947 730.57 459.425 729.209C465.774 728.051 472.312 727.847 478.59 726.44C483.761 725.279 485.692 726.818 485.577 731.852C485.101 752.211 491.38 771.095 497.725 790.093C502.585 804.643 505.718 819.739 509.306 834.688C515.261 859.507 519.793 884.77 529.334 908.657C532.53 916.652 534.843 925.028 537.31 933.226C541.898 948.478 547.49 963.313 553.173 978.114L553.168 978.115Z" fill="#81A0D2"/>
<path d="M561.879 873.632C561.26 860.51 560.776 847.378 559.992 834.268C558.179 804.119 560.625 773.611 552.329 743.992C551.472 740.929 551.776 737.564 551.271 734.381C550.503 729.565 549.845 724.888 543.142 724.348C539.989 724.093 537.125 721.67 537.259 717.683C537.372 714.311 539.421 712.298 542.448 711.161C551.911 707.604 562.085 707.989 571.838 705.927C575.447 705.162 577.084 708.251 578.08 711.882C582.871 729.372 587.425 746.725 595.842 763.258C605.088 781.415 614.743 799.428 623.44 817.894C628.809 829.298 634.073 840.903 640.911 851.42C646.022 859.282 641.932 865.865 639.942 872.099C636.122 884.061 634.081 896.567 628.409 908.062C625.328 914.305 619.803 918.345 616.801 924.447C615.188 927.732 612.581 925.525 610.728 924.065C597.457 913.593 584.492 902.804 573.346 889.967C568.999 884.957 562.695 881.373 561.874 873.633L561.879 873.632Z" fill="#AC73A2"/>
<path d="M273.83 390.183C269.545 388.488 265.034 388.267 260.526 387.598C243.526 385.075 227.834 361.027 230.854 344.089C232.881 332.722 240.598 327.156 250.018 323.174C255.947 320.666 262.25 318.896 268.751 318.276C280.629 317.133 283.626 312.263 278.207 301.703C271.313 288.268 273.542 276.196 282.673 264.896C291.583 253.875 305.779 252.614 317.097 261.227C323.999 266.476 327.631 273.973 332.192 280.871C333.829 284.28 332.958 288.878 337.06 291.115C338.183 294.586 339.312 298.061 340.439 301.531C338.687 302.799 334.768 302.809 336.084 305.978C337.293 308.901 340.282 306.587 342.496 306.332C342.804 306.682 343.077 307.057 343.315 307.461C350.219 328.214 348.412 349.361 346.439 370.579C345.955 375.788 343.845 378.485 338.931 379.463C329.962 381.25 321.048 383.364 312.033 384.88C299.355 387.011 286.903 390.875 273.83 390.183Z" fill="#F4A6E7"/>
<path d="M606.989 227.659C613.22 226.312 619.451 224.965 625.681 223.618C634.031 223.765 642.317 223.252 650.477 221.348C651.555 221.846 652.638 222.343 653.715 222.841C655.067 225.647 657.534 226.845 660.398 227.46C661.37 229.447 662.342 231.434 663.319 233.42C662.353 234.816 662.679 235.833 664.213 236.505C665.95 243.714 668.468 250.753 669.033 258.224C666.988 261.166 667.142 264.394 667.797 267.69C667.682 268.109 667.554 268.521 667.416 268.931C664.823 270.299 663.695 272.295 664.733 275.211C663.095 277.404 661.456 279.598 659.816 281.787C656.271 282.634 651.958 281.83 650.122 286.319C648.066 287.909 646.014 289.492 643.958 291.081C625.118 298.104 606.345 305.341 586.942 310.711C574.119 314.263 573.807 314.356 567.796 302.57C560.502 288.279 553.77 273.708 546.796 259.255C546.166 256.73 545.53 254.203 544.894 251.68C546.577 250.489 547.108 249.077 545.753 247.29C545.127 242.195 543.014 237.325 543.439 232.073C546.221 218.887 547.125 205.284 552.276 192.629C552.944 191.637 553.608 190.648 554.276 189.656C562.384 186.977 570.896 187.618 579.203 186.59C579.919 186.952 580.636 187.32 581.353 187.682C581.955 190.997 583.922 192.132 587.122 191.292C587.755 191.739 588.387 192.182 589.021 192.629C596.073 200.099 599.789 208.708 599.802 219.242C599.809 222.788 600.717 228.192 606.977 227.652L606.989 227.659Z" fill="#F4A6E7"/>
<path d="M380.457 152.286C381.85 151.691 383.244 151.097 384.639 150.508C386.304 150.882 387.416 150.315 387.861 148.616C397.11 144.111 407.179 142.428 417.055 140.075C420.741 142.843 424.428 142.336 428.115 140.074C430.292 140.455 432.469 140.836 434.646 141.217C435.53 143.627 436.92 144.19 438.956 142.406C438.956 142.406 439.541 142.593 439.536 142.595C436.985 148.098 437.673 153.388 442.459 156.916C447.12 160.351 452.469 163.005 457.804 165.331C465.497 168.68 473.051 169.894 477.619 160.268C478.097 160.504 478.57 160.742 479.048 160.978C478.888 163.737 478.983 166.261 482.952 165.17C483.799 166.087 484.651 167.002 485.497 167.919C485.15 171.616 488.248 173.971 489.117 177.2C488.134 180.76 488.803 183.889 491.551 186.468C491.872 188.559 492.187 190.646 492.509 192.737C490.991 196.165 489.139 199.598 492.71 202.927C493.354 206.856 490.874 210.68 492.319 214.634C492.319 214.634 492.265 214.727 492.269 214.726C488.839 215.091 487.45 217.692 485.861 220.272C480.73 228.607 473.211 234.467 464.707 238.828C454.572 244.018 443.3 246.062 432.444 249.262C415.277 254.319 398.272 252.234 381.323 248.531C374.466 247.032 369.047 243.077 365.97 236.465C367.172 232.62 364.668 231.6 361.731 230.91C358.906 226.743 357.022 222.18 355.995 217.259C357.147 213.644 356.465 210.545 353.406 208.121C350.708 199.742 354.234 191.999 355.869 184.063C356.896 183.754 357.909 183.35 358.957 183.157C371.715 180.789 378.037 171.593 382.756 160.728C383.929 158.027 383.94 155.48 380.868 153.864C380.73 153.338 380.589 152.808 380.45 152.282L380.457 152.286ZM370.717 205.08C367.182 208.39 367.576 210.541 372.56 211.336C373.187 211.123 373.815 210.915 374.442 210.702C376.373 212.756 379.067 211.929 381.379 212.542C382.045 214.426 383.919 215.35 385.172 214.383C391.366 209.614 397.714 212.072 404.111 213.424C407.397 214.122 410.493 212.91 413.611 212.117C421.17 210.204 428.639 207.436 436.314 206.622C443.401 205.868 448.341 202.623 452.259 197.436C453.672 195.565 455.345 194.634 457.125 193.533L457.245 193.606C457.667 194.409 457.914 195.663 458.554 195.914C459.603 196.325 460.254 195.407 460.317 194.271C461.37 194.019 462.423 193.767 463.476 193.515C465.62 195.502 466.461 194.665 466.502 192.116C467.48 191.6 468.458 191.084 469.436 190.568C474.01 193.017 475.23 189.378 475.836 186.438C476.579 182.826 474.948 180.193 470.641 180.385C469.818 179.221 468.993 178.051 468.175 176.885C468.42 171.686 464.327 171.89 461.116 171.635C458.597 171.434 456.253 172.41 457.513 175.903C456.801 176.491 456.084 177.08 455.37 177.663C444.784 178.342 434.208 173.89 423.709 177.028C411.637 180.639 397.119 177.481 388.064 189.743C386.721 191.564 384.381 191.342 382.107 191.013C373.403 189.745 369.131 194.505 370.692 203.474C370.734 204.009 370.739 204.544 370.712 205.082L370.717 205.08Z" fill="#FBFAFA"/>
<path d="M709.241 945.649C707.396 925.919 705.938 906.139 703.588 886.469C701.4 868.143 705.651 852.783 719.927 840.228C726.462 834.481 731.614 827.165 737.392 820.561C738.518 826.475 745.897 826.685 747.762 832.231C749.891 838.579 753.558 844.457 755.279 850.887C760.992 872.207 770.7 892.192 775.794 913.712C779.808 930.672 773.815 939.44 756.609 941.15C753.679 941.441 750.582 941.818 747.949 943.013C735.717 948.563 722.277 944.232 709.866 947.954C709.663 947.187 709.455 946.417 709.247 945.652L709.241 945.649Z" fill="#81A0D2"/>
<path d="M577.371 1095.81C575.823 1090.91 580.64 1086.74 578.985 1081.82C579.906 1080.58 580.827 1079.33 581.749 1078.08C588.066 1070.58 595.827 1064.62 603.08 1058.11C604.527 1057.71 605.974 1057.32 607.414 1056.93C614.224 1057.23 619.937 1052.73 625.424 1050.42C640.786 1043.94 657.128 1045.03 672.642 1040.86C684.063 1037.79 695.726 1034.86 708.138 1036.55C720.055 1038.18 728.989 1044.18 737.344 1051.91C719.13 1055.65 702.288 1064.4 684 1067.44C658.958 1071.61 634.854 1079.24 610.456 1085.72C599.355 1088.67 588.673 1093.3 577.37 1095.8L577.371 1095.81Z" fill="#DEE5F0"/>
<path d="M514.311 721.273C515.355 721.086 516.398 720.894 517.442 720.708C525.721 721.563 525.497 729.983 528.757 734.761C532.826 740.728 541.237 744.328 539.981 754.035C538.82 762.992 538.068 772.378 539.508 781.189C541.108 790.983 537.754 801.024 541.771 810.494C541.948 811.546 542.125 812.592 542.307 813.637C540.062 819.066 540.865 824.692 541.238 830.28C541.971 841.286 542.787 852.29 543.469 863.304C543.61 865.59 544.51 868.994 541.608 869.55C538.706 870.107 538.209 866.376 537.597 864.399C533.444 851.012 529.892 837.472 526.755 823.791C520.5 796.487 514.608 769.06 505.295 742.554C504.166 737.308 503.042 732.06 501.913 726.814C505.204 723.075 510.736 724.356 514.316 721.271L514.311 721.273Z" fill="#FBFAFA"/>
<path d="M238.416 571.905C241.035 589.333 248.352 605.221 254.961 621.3C257.181 626.694 261.082 631.371 263.624 636.653C266.515 642.658 264.365 645.881 257.987 644.881C242.925 642.508 227.66 640.325 218.75 625.326C214.336 617.895 211.161 610.12 210.576 601.441C209.721 588.696 210.081 576.156 217.538 564.988C218.581 563.425 219.423 561.6 220.805 560.425C228.929 553.532 234.124 555.286 236.769 565.65C237.299 567.738 237.871 569.821 238.421 571.904L238.416 571.905Z" fill="#BC8774"/>
<path d="M757.724 470.705C762.135 475.105 763.776 480.915 762.974 485.998C761.285 496.693 762.825 507.354 761.789 517.912C760.988 526.081 758.911 534.192 756.699 542.134C753.389 554.035 750.375 566.141 745.607 577.476C737.624 596.44 726.121 613.244 710.584 627.094C700.96 635.671 689.345 641.252 679 648.732C676.912 650.24 673.513 650.287 672.325 648.515C670.707 646.115 673.258 644.311 675.45 643.017C681.92 639.194 686.382 633.164 691.54 627.954C720.231 598.971 740.658 565.435 750.426 525.299C753.491 512.711 755.563 500.738 754.762 487.822C754.429 482.486 758.868 477.046 757.722 470.7L757.724 470.705Z" fill="#BC8774"/>
<path d="M546.804 259.263C553.777 273.712 560.509 288.288 567.803 302.578C573.821 314.368 574.126 314.272 586.95 310.72C606.357 305.344 625.126 298.113 643.965 291.089C644.508 296.028 649.489 298.622 650.442 303.341C633.325 308.233 616.581 314.214 599.816 320.179C590.323 323.561 580.277 323.819 570.313 324.229C565.285 324.439 561.89 322.393 559.056 317.976C551.949 306.894 543.962 296.187 539.076 284.004C534.211 271.862 525.373 265.395 513.876 261.275C511.826 260.54 509.719 259.967 508.883 257.618C511.831 256.86 515.366 256.73 517.393 258.391C527.145 266.409 536.922 262.248 546.803 259.258L546.804 259.263Z" fill="#AC73A2"/>
<path d="M273.83 390.183C286.903 390.875 299.354 387.006 312.033 384.88C321.048 383.364 329.962 381.25 338.931 379.463C343.85 378.484 345.956 375.793 346.439 370.579C348.412 349.361 350.225 328.218 343.315 307.462C349.868 304.111 355.132 311.875 361.568 309.575C361.774 310.156 361.975 310.739 362.182 311.32C362.098 328.486 362.338 345.665 361.836 362.82C361.296 381.204 358.001 385.186 340.474 390.712C323.481 396.07 305.924 398.897 288.423 401.956C284.464 402.651 280.577 403.778 276.66 404.708C275.716 399.865 274.768 395.023 273.824 390.18L273.83 390.183Z" fill="#AC73A2"/>
<path d="M505.29 742.555C514.598 769.063 520.495 796.488 526.75 823.793C529.882 837.475 533.439 851.013 537.592 864.4C538.204 866.377 538.701 870.108 541.603 869.552C544.505 868.995 543.605 865.591 543.464 863.305C542.788 852.295 541.967 841.292 541.233 830.281C540.86 824.693 540.055 819.062 542.302 813.639C544.664 815.195 545.087 817.953 544.811 820.107C543.466 830.653 546.45 841.011 545.98 851.404C545.516 861.722 547.591 871.8 548.89 881.747C550.016 890.363 557.494 897.316 563.576 904.101C574.307 916.08 586.519 926.506 598.097 937.594C590.782 936.926 586.34 931.457 581.485 927.09C571.904 918.465 563.101 909.025 554.913 899.028C553.647 897.481 552.353 894.712 549.978 895.77C547.364 896.939 548.888 899.642 549.532 901.501C558.07 926.131 563.602 951.735 573.739 975.869C575.767 980.698 578.149 981.756 582.935 980.57C589.628 978.906 596.164 975.949 603.349 977.098C595.852 981.849 587.056 982.261 578.761 984.19C574.75 985.124 572.129 982.727 570.281 978.538C563.6 963.423 561.05 947.054 555.193 931.653C536.372 882.16 525.108 830.428 511.62 779.373C508.874 768.984 507.838 758.163 504.601 747.845C504.035 746.04 503.673 744.134 505.3 742.553L505.29 742.555Z" fill="#AC73A2"/>
<path d="M357.44 666.026C373.445 670.594 388.021 679.024 403.972 683.585C416.606 687.193 429.55 689.843 442.477 692.254C457.07 694.977 472.126 694.803 486.735 694.605C498.375 694.451 510.752 696.829 522.353 691.572C529.474 688.345 537.465 687.888 545.304 687.792C550.806 687.726 556.374 686.696 560.869 684.015C569.394 678.935 578.585 676.201 588.047 674.11C598.229 671.861 606.008 664.896 614.999 660.407C624.119 655.852 633.035 650.243 641.594 644.481C649.207 639.352 655.557 632.387 662.908 626.829C679.768 614.085 691.742 597.036 704.533 580.69C705.874 578.98 706.826 576.973 709.421 577.028C702.465 593.214 690.052 605.239 678.183 617.615C660.439 636.121 639.766 651.029 617.557 663.504C608.082 668.825 598.86 675.162 587.739 677.618C580.17 679.292 572.87 682.383 566.063 686.363C559.898 689.968 553.167 691.727 546.036 691.956C534.947 692.306 524.121 694.463 513.424 697.153C503.872 699.557 494.093 698.179 484.577 698.355C471.323 698.605 457.848 697.983 444.485 696.012C418.284 692.147 393.03 685.583 369.474 673.368C365.356 671.234 359.777 671.169 357.44 666.026Z" fill="#BDC9DC"/>
<path d="M355.875 184.066C354.24 192.003 350.714 199.746 353.412 208.125C351.732 211.89 352.634 214.926 356.002 217.268C357.029 222.189 358.913 226.752 361.734 230.92C361.976 233.668 363.439 235.483 365.977 236.473C369.055 243.086 374.475 247.045 381.33 248.539C398.278 252.238 415.284 254.328 432.451 249.271C443.307 246.07 454.575 244.033 464.714 238.836C473.219 234.476 480.738 228.616 485.868 220.28C487.461 217.694 488.85 215.094 492.277 214.734C488.481 227.026 478.374 233.576 468.765 240.577C467.703 241.352 466.677 242.165 465.668 243.004C465.565 243.089 465.703 243.473 465.789 244.275C471.146 244.515 476.632 244.547 482.064 245.072C486.235 245.478 490.893 245.103 493.595 249.518C476.364 245.007 460.891 251.382 445.08 256.817C433.134 260.925 421.058 264.937 408.378 266.448C410.921 262.066 415.735 262.418 419.699 261.328C425.241 259.8 430.275 257.766 435.592 251.389C430.05 252.854 426.456 254.134 422.755 254.729C401.968 258.047 381.125 257.769 365.336 242.182C353.429 230.424 346.747 214.989 349.308 197.09C351.377 182.622 356.292 169.635 366.932 159.134C370.802 155.316 374.79 152.286 380.457 152.286C380.595 152.811 380.736 153.342 380.875 153.868C369.024 161.02 360.411 170.859 355.875 184.066Z" fill="#A89FAA"/>
<path d="M411.95 713.892C405.606 713.319 398.583 713.399 391.893 711.951C366.368 706.43 344.21 693.719 324.553 677.12C309.984 664.82 296.818 650.847 285.734 635.141C285.274 634.495 284.699 633.69 284.726 632.979C284.871 629.031 278.695 624.498 282.531 622.365C286.17 620.342 286.221 627.297 288.463 629.873C307.29 651.506 327.123 671.511 353.581 684.442C367.059 691.023 380.052 698.515 394.396 703.122C400.244 705.003 406.255 706.384 412.2 707.955C414.093 708.454 417.105 707.479 416.885 710.843C416.729 713.217 414.195 713.057 411.956 713.895L411.95 713.892Z" fill="#BC8774"/>
<path d="M477.621 160.273C473.052 169.899 465.498 168.685 457.805 165.336C452.465 163.011 447.117 160.357 442.46 156.921C437.675 153.392 436.99 148.097 439.538 142.599C441.251 142.777 442.959 142.956 444.668 143.136C445.768 144.453 447.105 144.877 448.736 144.226C448.736 144.226 448.836 144.288 448.831 144.29C450.087 148.304 452.859 148.57 456.259 147.293C457.394 147.787 458.528 148.28 459.662 148.769C460.642 150.591 462.049 151.06 463.904 150.102C467.324 151.884 471.422 152.551 473.755 156.107C474.048 158.232 475.3 159.031 477.363 158.722C477.453 159.24 477.537 159.759 477.625 160.271L477.621 160.273Z" fill="#DEE5F0"/>
<path d="M733.357 424.812C731.575 424.274 730.854 422.819 730.493 421.217C725.486 398.97 714.439 379.149 703.162 359.931C694.947 345.931 684.309 332.85 671.661 321.929C665.429 316.55 659.646 310.658 653.665 304.996C661.263 304.486 664.578 311.262 668.978 315.139C682.202 326.769 693.882 340.211 703.857 354.623C710.235 363.837 715.583 374.107 719.757 384.891C724.846 398.04 732.558 410.213 733.362 424.81L733.357 424.812Z" fill="#AC73A2"/>
<path d="M360.025 144.652C359.22 144.949 358.415 145.246 357.609 145.538C356.406 146.018 355.098 146.338 354.027 147.02C352.409 148.058 352.338 151.65 349.392 150.348C347.159 149.356 347.068 146.884 347.309 144.676C347.895 139.334 348.476 133.993 349.22 128.672C349.546 126.326 351.046 124.264 353.504 124.755C357.827 125.615 360.386 122.053 363.991 121.311L364.037 121.346C364.435 123.369 365.925 124.394 367.517 125.482C374.865 130.493 374.68 133.075 367.118 137.717C364.296 139.451 360.501 140.427 360.031 144.656L360.025 144.652Z" fill="#A89FAA"/>
<path d="M457.072 125.027C454.515 125.855 452.345 124.426 450.135 123.664C443.093 121.243 442.379 118.604 447.089 112.613C448.564 110.736 450.39 109.134 452.099 107.442C455.601 103.968 456.784 96.8654 463.644 98.5366C468.588 99.742 476.252 114.718 475.658 120.225C474.354 118.236 473.195 116.12 471.693 114.294C470.431 112.761 470.68 109.448 467.746 109.939C465.802 110.264 465.213 112.548 464.598 114.34C463.903 116.363 463.539 118.966 460.521 118.229C449.355 115.499 455.605 121.446 457.073 125.031L457.072 125.027Z" fill="#BC8774"/>
<path d="M541.764 810.491C537.748 801.02 541.103 790.984 539.502 781.185C538.062 772.374 538.813 762.984 539.974 754.032C541.235 744.323 532.82 740.724 528.751 734.757C525.497 729.983 525.721 721.563 517.436 720.704C520.742 717.481 523.632 718.131 525.938 721.826C530.566 729.253 533.746 737.468 540.745 743.543C544.021 746.388 543.395 752.135 543.262 756.684C542.83 771.082 542.902 785.458 543.744 799.84C543.955 803.463 544.909 807.41 541.764 810.491Z" fill="#AC73A2"/>
<path d="M363.991 121.311C360.386 122.053 357.822 125.616 353.504 124.755C351.051 124.263 349.551 126.325 349.22 128.672C348.476 133.993 347.895 139.334 347.309 144.676C347.069 146.889 347.154 149.357 349.392 150.348C352.338 151.65 352.409 148.058 354.027 147.02C355.096 146.333 356.405 146.013 357.609 145.538C356.361 149.704 354.073 153.32 351.54 156.785C350.552 158.139 349.102 158.896 347.357 158.658C345.65 158.426 345.37 157.049 345.346 155.684C345.144 143.125 342.418 130.444 348.083 118.225C351.405 111.062 354.978 110.144 360.584 115.978C362.019 117.47 362.866 119.521 363.986 121.312L363.991 121.311Z" fill="#BC8774"/>
<path d="M507.566 221.646C508.583 218.271 510.806 219.444 512.518 220.632C520.186 225.936 526.438 232.367 528.338 241.981C528.705 243.85 529.222 245.805 527.341 247.122C525.593 248.346 523.749 247.793 522.029 246.854C514.982 243.004 508.267 238.541 500.392 236.292C497.465 235.457 496.682 233.273 499.667 231.081C503.764 234.948 509.151 235.837 514.293 236.896C516.684 237.388 520.351 238.931 521.808 236.35C523.459 233.427 519.44 232.224 518.067 230.149C515.418 226.156 511.766 223.616 507.566 221.646Z" fill="#A89FAA"/>
<path d="M457.072 125.027C455.604 121.441 449.353 115.494 460.52 118.224C463.538 118.961 463.902 116.363 464.597 114.335C465.211 112.543 465.796 110.26 467.744 109.935C470.679 109.443 470.431 112.761 471.692 114.289C473.194 116.115 474.353 118.231 475.656 120.22C475.875 121.345 476.093 122.47 476.315 123.588C474.728 124.465 474.087 125.838 474.687 127.513C476.161 131.638 473.341 131.648 470.667 131.855C466.132 129.574 461.599 127.299 457.069 125.017L457.072 125.027Z" fill="#A89FAA"/>
<path d="M362.187 311.319C361.98 310.737 361.779 310.155 361.573 309.573C371.518 304.123 377.506 295.372 381.562 285.161C384.865 276.851 397.471 268.159 406.47 268.377C405.735 273.354 400.833 271.055 398.097 272.718C385.92 280.125 382.286 293.368 374.987 303.979C371.55 308.976 368.448 312.297 362.185 311.314L362.187 311.319Z" fill="#A89FAA"/>
<path d="M709.44 577.018C708.566 575.462 708.627 573.843 709.555 572.42C719.288 557.535 725.093 540.933 730.736 524.254C731.32 522.523 731.577 520.494 733.744 519.801C735.32 524.571 733.172 528.776 731.514 532.945C725.428 548.265 720.311 564.091 709.44 577.018Z" fill="#BDC9DC"/>
<path d="M507.566 221.646C511.765 223.611 515.418 226.156 518.067 230.149C519.44 232.224 523.46 233.432 521.808 236.35C520.351 238.931 516.684 237.388 514.293 236.896C509.15 235.832 503.763 234.943 499.667 231.081C501.619 227.369 504.251 224.22 507.567 221.651L507.566 221.646Z" fill="#DEE5F0"/>
<path d="M374.026 273.152C372.597 274.985 371.166 276.814 369.738 278.647L368.937 278.622C365.59 275.723 362.243 272.824 358.89 269.926C358.964 268.493 359.042 267.058 359.115 265.625C360.682 264.691 361.354 263.357 360.937 261.539C367.193 261.42 372.303 263.611 375.857 268.942C374.027 269.815 373.2 271.121 374.029 273.146L374.026 273.152Z" fill="#BDC9DC"/>
<path d="M360.025 144.652C360.495 140.424 364.289 139.447 367.111 137.713C374.674 133.071 374.86 130.494 367.51 125.478C365.92 124.395 364.43 123.37 364.031 121.342C366.885 120.866 369.207 122.549 371.656 123.442C375.141 124.712 378.933 126.133 379.418 130.635C379.981 135.867 375.44 136.405 372.164 137.697C367.741 139.439 365.264 144.466 360.013 144.65L360.025 144.652Z" fill="#BC8774"/>
<path d="M325.077 643.42C325.848 643.217 326.968 642.579 327.346 642.878C337.202 650.653 348.596 656.45 357.156 665.886C344.469 661.241 334.145 653.227 325.076 643.415L325.077 643.42Z" fill="#BDC9DC"/>
<path d="M606.989 227.659C600.729 228.199 599.817 222.796 599.815 219.249C599.8 208.711 596.086 200.107 589.033 192.637C601.49 195.294 600.836 206.403 602.654 215.193C603.586 219.714 604.467 223.864 606.994 227.658L606.989 227.659Z" fill="#AC73A2"/>
<path d="M552.282 192.632C547.132 205.287 546.227 218.891 543.446 232.076C542.912 231.171 541.952 230.285 541.907 229.356C541.336 217.766 545.006 206.932 548.171 196.031C548.678 194.289 550.17 192.875 552.282 192.632Z" fill="#AC73A2"/>
<path d="M709.241 945.649C709.445 946.42 709.647 947.186 709.86 947.95C704.066 953.638 695.974 953.033 688.984 955.406C684.238 957.018 679.387 958.994 674.118 958.332C677.38 953.906 682.729 954.474 687.181 952.961C694.517 950.465 702.498 949.932 709.244 945.643L709.241 945.649Z" fill="#AC73A2"/>
<path d="M492.326 214.643C490.877 210.69 493.355 206.861 492.717 202.935C494.372 199.508 494.544 196.104 492.516 192.746C492.195 190.655 491.88 188.568 491.56 186.482C492.309 186.215 493.059 185.949 493.809 185.682C497.734 195.561 500.785 205.396 492.326 214.643Z" fill="#A89FAA"/>
<path d="M603.08 1058.11C595.832 1064.62 588.066 1070.58 581.749 1078.08C583.349 1068.16 592.922 1059.19 603.08 1058.11Z" fill="#A89FAA"/>
<path d="M364.567 287.545C364.459 290.101 363.835 292.494 360.799 292.661C357.787 292.821 356.303 290.349 356.415 288.007C356.692 282.116 351.473 275.712 357.838 270.341C358.067 273.197 357.824 276.194 358.641 278.868C359.675 282.242 358.63 287.401 364.562 287.546L364.567 287.545Z" fill="#BC8774"/>
<path d="M364.567 287.545C358.637 287.404 359.68 282.241 358.646 278.867C357.829 276.192 358.072 273.196 357.843 270.339C358.127 270.022 358.477 269.893 358.898 269.934C362.244 272.829 365.591 275.728 368.94 278.632C366.808 280.473 364.388 282.174 365.736 285.607C365.344 286.252 364.957 286.895 364.565 287.54L364.567 287.545Z" fill="#A89FAA"/>
<path d="M265.866 435.593C265.601 445.37 267.68 455.604 260.326 463.996C260.219 454.144 262.02 444.671 265.866 435.593Z" fill="#BDC9DC"/>
<path d="M614.577 974.094C623.205 969.065 632.793 967.635 642.486 966.618C633.628 970.772 624.196 972.797 614.577 974.094Z" fill="#AC73A2"/>
<path d="M579.209 186.593C570.902 187.622 562.385 186.982 554.283 189.66C560.225 182.766 572.918 181.208 579.209 186.593Z" fill="#AC73A2"/>
<path d="M650.477 221.347C642.317 223.252 634.026 223.766 625.681 223.617C633.573 218.789 641.784 217.396 650.477 221.347Z" fill="#AC73A2"/>
<path d="M470.669 131.86C473.342 131.653 476.159 131.649 474.689 127.518C474.093 125.841 474.728 124.465 476.316 123.593C477.183 124.583 478.535 125.445 478.825 126.582C479.61 129.67 482.8 133.546 478.938 135.839C475.557 137.847 472.485 135.232 470.669 131.86Z" fill="#BC8774"/>
<path d="M259.875 502.548C265.279 508.478 265.898 514.6 260.595 520.947C258.723 514.877 258.948 508.727 259.875 502.548Z" fill="#BDC9DC"/>
<path d="M263.89 536.636C268.5 542.186 269.975 548.581 269 555.634C265.278 549.844 263.941 543.412 263.89 536.636Z" fill="#BDC9DC"/>
<path d="M648.836 965.245C655.054 962.913 661.382 960.999 668.035 960.376C662.418 965.081 656.296 967.793 648.836 965.245Z" fill="#AC73A2"/>
<path d="M259.304 480.937C263.924 486.206 262.834 491.271 258.77 496.24C256.447 491.051 257.658 485.986 259.304 480.937Z" fill="#BDC9DC"/>
<path d="M309.874 628.682C315.677 630.769 321.456 632.884 321.516 640.588C316.159 638.062 313.129 633.261 309.874 628.682Z" fill="#BDC9DC"/>
<path d="M514.311 721.273C510.732 724.358 505.194 723.078 501.908 726.816C501.714 721.086 506.106 719.126 514.311 721.273Z" fill="#AC73A2"/>
<path d="M493.809 185.682C493.059 185.949 492.309 186.215 491.56 186.482C488.811 183.897 488.143 180.773 489.125 177.208C489.893 177.131 490.661 177.054 491.429 176.978C493.271 179.591 493.854 182.554 493.809 185.682Z" fill="#BDC9DC"/>
<path d="M298.058 614.982C303.047 617.568 308.655 619.591 308.756 626.659C303.241 624.549 300.504 619.901 298.058 614.982Z" fill="#BDC9DC"/>
<path d="M284.979 594.831C289.806 597.182 292.914 600.628 292.335 606.415C288.349 603.526 285.728 599.773 284.979 594.831Z" fill="#BDC9DC"/>
<path d="M273.937 572.602C279.445 573.99 281.283 577.446 279.709 582.828C276.566 580.106 274.878 576.563 273.937 572.602Z" fill="#BDC9DC"/>
<path d="M337.067 291.118C332.964 288.881 333.834 284.279 332.199 280.874C338.319 282.153 337.112 286.913 337.067 291.118Z" fill="#AC73A2"/>
<path d="M428.115 140.074C424.428 142.336 420.741 142.843 417.055 140.075C420.743 138.974 424.427 138.789 428.115 140.074Z" fill="#A89FAA"/>
<path d="M260.688 467.159C265.772 471.455 261.48 473.656 258.67 476.19C257.128 472.683 259.549 470.067 260.688 467.159Z" fill="#BDC9DC"/>
<path d="M650.128 286.323C651.964 281.833 656.276 282.633 659.822 281.79C658.387 287.141 653.679 285.495 650.128 286.323Z" fill="#AC73A2"/>
<path d="M342.503 306.336C340.288 306.59 337.299 308.904 336.09 305.981C334.779 302.812 338.693 302.802 340.445 301.535C341.131 303.135 341.817 304.736 342.503 306.336Z" fill="#AC73A2"/>
<path d="M271.133 417.431C271.37 421.63 274.048 426.651 267.379 428.508C268.799 424.869 267.731 420.39 271.133 417.431Z" fill="#BDC9DC"/>
<path d="M491.428 176.973C490.66 177.05 489.892 177.126 489.123 177.203C488.256 173.98 485.157 171.624 485.499 167.924C489.481 169.625 490.578 173.219 491.428 176.973Z" fill="#A89FAA"/>
<path d="M667.802 267.688C667.142 264.394 666.988 261.166 669.038 258.223C671.195 261.71 671.383 264.945 667.802 267.688Z" fill="#AC73A2"/>
<path d="M260.703 524.161C263.827 526.215 264.755 528.813 262.707 532.161C260.614 529.85 259.507 527.294 260.703 524.161Z" fill="#BDC9DC"/>
<path d="M660.398 227.46C657.529 226.847 655.066 225.642 653.716 222.841C657.415 222.257 660.522 222.519 660.398 227.46Z" fill="#AC73A2"/>
<path d="M456.259 147.293C452.859 148.57 450.087 148.304 448.831 144.29C451.63 144.496 454.553 144.396 456.259 147.293Z" fill="#A89FAA"/>
<path d="M365.738 285.612C364.389 282.179 366.809 280.478 368.941 278.637C368.941 278.637 369.745 278.656 369.74 278.657C371.016 282.472 367.839 283.737 365.739 285.616L365.738 285.612Z" fill="#BC8774"/>
<path d="M587.13 191.3C583.928 192.136 581.963 191.005 581.36 187.691C584.14 187.529 586.134 188.626 587.13 191.3Z" fill="#AC73A2"/>
<path d="M664.739 275.214C663.7 272.294 664.829 270.303 667.422 268.935C668.598 271.914 667.498 273.918 664.739 275.214Z" fill="#AC73A2"/>
<path d="M281.156 585.735C284.409 586.211 285.043 587.772 283.089 590.406C281.167 589.38 280.771 587.719 281.156 585.735Z" fill="#BDC9DC"/>
<path d="M482.955 165.18C478.985 166.271 478.886 163.748 479.05 160.988C481.452 161.362 482.578 162.92 482.955 165.18Z" fill="#A89FAA"/>
<path d="M438.956 142.406C436.915 144.191 435.524 143.623 434.646 141.217C436.325 140.747 437.721 141.277 438.956 142.406Z" fill="#DEE5F0"/>
<path d="M448.735 144.221C447.109 144.871 445.767 144.448 444.667 143.131C446.555 141.523 447.882 141.971 448.735 144.221Z" fill="#A89FAA"/>
<path d="M374.026 273.152C373.201 271.126 374.022 269.816 375.853 268.948C376.683 270.973 376 272.347 374.026 273.152Z" fill="#BC8774"/>
<path d="M360.938 261.544C361.357 263.367 360.683 264.696 359.117 265.63C357.967 263.49 358.853 262.247 360.938 261.544Z" fill="#BC8774"/>
<path d="M664.213 236.505C662.684 235.832 662.358 234.815 663.319 233.42C664.984 234.052 665.239 235.094 664.213 236.505Z" fill="#AC73A2"/>
<path d="M387.859 148.611C387.416 150.315 386.304 150.882 384.638 150.503C384.908 148.503 385.668 147.34 387.859 148.611Z" fill="#A89FAA"/>
<path d="M266.716 432.105C269.428 434.01 267.974 434.894 265.856 435.611C265.326 434.243 265.532 433.054 266.716 432.105Z" fill="#BDC9DC"/>
<path d="M477.363 158.722C475.301 159.036 474.049 158.237 473.755 156.107C475.801 155.814 477.015 156.67 477.363 158.722Z" fill="#A89FAA"/>
<path d="M545.759 247.294C547.11 249.081 546.579 250.494 544.901 251.683C543.663 249.924 544.209 248.508 545.759 247.294Z" fill="#AC73A2"/>
<path d="M463.904 150.102C462.049 151.06 460.641 150.586 459.662 148.769C461.531 147.766 462.934 148.241 463.904 150.102Z" fill="#A89FAA"/>
<path d="M691.246 427.122C707.698 431.572 721.632 439.304 729.746 455.307C734.137 463.963 732.698 472.7 730.553 481.213C725.738 500.328 711.465 509.513 693.891 515.639C683.76 519.174 673.838 520.419 663.253 519.411C658.19 518.931 654.644 516.894 651.649 513.197C652.862 509.077 654.228 504.995 655.24 500.828C656.667 494.949 651.896 492.173 648.472 489.221C645.265 486.458 641.824 488.313 639.228 491.044C636.818 493.578 632.978 494.325 631.219 497.617C630.139 495.795 628.585 494.093 628.059 492.124C626.172 485.024 620.88 477.688 628.788 470.894C633.944 470.83 636.563 468.43 638.601 463.371C645.38 446.575 660.369 438.426 676.758 441.683C690.279 444.369 692.581 441.842 689.245 427.946C689.913 427.669 690.575 427.389 691.243 427.113L691.246 427.122Z" fill="#F4A6E7"/>
<path d="M385.781 573.462C380.384 577.426 377.509 583.594 372.338 588.035C364.416 594.838 356.042 598.995 345.788 599.798C343.661 599.966 341.523 600.289 339.441 600.766C319.911 605.238 303.835 598.95 291.44 583.995C281.192 571.631 281.518 557.429 287.459 543.072C288.383 540.841 289.113 538.509 290.259 536.404C293.673 530.125 297.417 524.164 305.941 524.671C306.674 529.711 306.824 535.531 312.277 537.685C317.373 539.702 320.523 534.933 323.901 532.08C335.297 522.472 352.821 521.052 365.258 530.814C372.083 536.174 377.027 536.501 383.218 531.444C384.111 531.938 385.003 532.428 385.896 532.923C389.601 539.443 388.476 547.24 391.455 553.957C383.096 558.589 382.635 560.166 385.78 573.457L385.781 573.462Z" fill="#F4A6E7"/>
<path d="M568.7 528.902C567.223 529.66 565.747 530.419 564.274 531.171C559.86 532.253 555.984 534.334 552.686 537.47C547.226 539.108 541.771 540.744 536.306 542.383C528.635 544.326 520.974 546.267 513.309 548.214C501.243 552.149 488.798 553.393 476.192 553.509C475.167 553.69 474.149 553.875 473.129 554.055C472.136 552.804 470.891 552.687 469.498 553.265C467.554 551.577 465.338 552.22 463.16 552.533C460.773 549.391 457.398 547.976 453.762 546.771C449.562 545.379 445.408 543.146 445.373 538.141C445.309 528.887 444.47 519.329 452.002 511.825C454.223 509.609 456.653 507.327 457.493 504.041C461.247 502.65 464.681 500.628 468.495 499.247C484.795 493.352 501.942 490.108 517.893 483.133C528.199 478.628 538.606 474.227 550.247 474.735C550.577 474.831 550.877 474.989 551.146 475.191C557.378 479.577 565.306 479.663 571.824 483.259C579.59 487.544 585.58 493.697 586.935 502.683C588.134 510.643 581.492 514.89 576.62 519.546C573.606 522.424 569.025 523.787 568.711 528.905L568.7 528.902ZM533.781 531.514C536.88 529.518 542.995 529.006 548.329 526.492C557.383 522.223 564.001 506.689 558.768 500.809C552.952 494.279 545.521 490.289 535.97 491.384C527.862 492.312 520.564 495.807 512.766 497.569C497.359 501.052 484.321 509.002 472.276 518.802C466.742 523.302 467.064 527.106 472.405 531.543C475.403 534.036 478.565 535.497 482.393 536.277C499.219 539.713 515.443 535.941 533.779 531.51L533.781 531.514Z" fill="#AC73A2"/>
<path d="M545.515 545.819C549.948 544.374 554.375 542.926 558.804 541.482C563.366 542.436 567.126 540.092 571.043 538.463C579.976 534.751 588.724 530.516 597.85 527.358C610.358 523.027 621.935 517.981 631.176 507.677C634.53 503.937 634.685 498.556 639.075 495.956C641.753 494.37 643.319 489.416 647.727 492.828C651.263 495.567 652.728 499.043 651.126 503.523C650.11 506.362 648.733 508.928 646.67 511.144C635.914 522.7 622.9 531.122 608.694 537.615C597.966 542.515 586.842 546.548 575.905 550.994C566.46 554.836 557.197 561.441 547.56 562.049C523.438 563.568 501.421 573.565 477.661 576.612C454.186 579.621 430.935 581.788 407.405 579.776C401.235 579.247 395.532 576.245 390.516 572.421C387.236 569.918 387.221 566.48 388.15 562.871C388.549 561.321 388.711 559.286 390.599 559.092C394.207 558.722 395.821 561.606 397.034 564.244C398.34 567.079 400.161 567.543 402.881 566.856C406.414 565.964 409.74 567.408 413.177 567.824C424.824 569.229 436.606 570.787 447.862 565.521C449.296 565.278 450.729 565.031 452.163 564.789C462.319 565.862 472.459 566.856 481.878 561.418C487.444 560.242 493.015 559.064 498.581 557.887C501.173 560.755 504.233 559.163 506.742 558.216C516.687 554.473 527.049 552.428 537.338 550.025C540.334 549.327 543.826 549.214 545.514 545.814L545.515 545.819Z" fill="#674447"/>
<path d="M447.864 565.526C436.613 570.791 424.824 569.229 413.178 567.829C409.747 567.417 406.417 565.974 402.882 566.861C400.167 567.547 398.341 567.084 397.035 564.249C395.823 561.611 394.21 558.731 390.6 559.097C388.707 559.292 388.546 561.327 388.151 562.876C387.224 566.49 387.234 569.93 390.517 572.426C395.533 576.25 401.237 579.252 407.406 579.781C430.936 581.793 454.187 579.626 477.662 576.617C501.422 573.57 523.439 563.573 547.561 562.054C557.204 561.445 566.461 554.841 575.907 550.999C586.843 546.553 597.966 542.515 608.695 537.62C622.903 531.132 635.915 522.705 646.671 511.149C648.734 508.933 650.112 506.367 651.128 503.528C652.725 499.049 651.264 495.572 647.728 492.833C643.32 489.421 641.754 494.375 639.077 495.961C634.685 498.556 634.531 503.941 631.177 507.681C621.941 517.985 610.359 523.032 597.852 527.363C588.73 530.52 579.982 534.755 571.044 538.468C567.127 540.097 563.363 542.442 558.805 541.487C566.511 534.584 575.672 529.745 585.497 527.753C598.533 525.107 608.122 515.483 620.74 512.306C623.905 511.511 625.193 507.813 626.84 505.033C630.309 503.759 632.301 501.609 631.22 497.638C632.972 494.342 636.818 493.599 639.228 491.065C641.824 488.334 645.266 486.479 648.472 489.242C651.896 492.194 656.667 494.97 655.24 500.849C654.228 505.016 652.861 509.093 651.649 513.218C637.685 525.801 622.31 536.765 605.271 544.216C591.054 550.433 576.719 556.976 561.882 561.543C539.015 568.585 515.906 575.644 492.38 579.475C476.651 582.04 460.601 584.621 444.379 584.883C433.126 585.066 422.032 585.197 410.799 583.83C401.256 582.668 393.203 579.147 385.789 573.47C382.64 560.186 383.101 558.609 391.462 553.982C392.989 553.914 394.519 553.836 396.051 553.762C398.002 556.967 402.79 556.29 404.444 559.9C405.679 563.678 408.518 563.958 411.795 563.27C412.26 563.321 412.716 563.295 413.177 563.189C414.23 564.708 415.611 565.399 417.475 564.891C418.412 564.838 419.35 564.784 420.291 564.725C427.777 567.571 435.236 565.105 442.7 564.583C444.228 564.279 445.756 563.975 447.286 563.676C447.481 564.297 447.677 564.918 447.868 565.54L447.864 565.526Z" fill="#A89FAA"/>
<path d="M383.22 531.449C377.034 536.505 372.085 536.178 365.259 530.819C352.823 521.057 335.299 522.477 323.902 532.085C320.523 534.933 317.373 539.702 312.278 537.69C306.824 535.531 306.675 529.716 305.942 524.675C309.077 521.361 312.207 518.048 315.334 514.741C328.645 508.159 342.158 502.365 357.567 504.1C358.212 505.248 359.156 505.577 360.385 505.116C361.525 506.885 363.071 507.501 365.095 506.767L365.105 506.764C366.366 509.468 369.494 509.629 371.424 511.4C377.397 516.875 385.098 521.351 383.215 531.45L383.22 531.449Z" fill="#674447"/>
<path d="M631.222 497.627C632.304 501.603 630.306 503.749 626.842 505.022C622.535 499.187 620.697 492.593 620.506 485.386C620.214 474.217 616.081 463.232 618.985 451.901C623.067 435.981 644.41 417.028 663.045 419.792C669.113 420.69 675.272 421.043 681.404 421.351C685.81 421.574 689.181 423.127 691.246 427.122C690.582 427.398 689.916 427.679 689.247 427.955C683.832 425.424 677.977 424.874 672.167 423.914C648.684 420.03 629.066 432.383 622.335 455.152C620.169 462.488 620.139 468.303 628.791 470.904C620.876 477.694 626.175 485.034 628.062 492.134C628.584 494.109 630.141 495.805 631.222 497.627Z" fill="#D7E2F4"/>
<path d="M550.246 474.73C538.604 474.222 528.192 478.624 517.891 483.128C501.941 490.103 484.795 493.352 468.494 499.242C464.68 500.623 461.246 502.645 457.492 504.036C456.951 504.116 456.408 504.191 455.872 504.27C458.968 497.629 465.949 496.157 471.59 494.23C494.611 486.359 517.955 479.411 541.248 472.351C544.344 471.413 548.726 468.483 550.251 474.728L550.246 474.73Z" fill="#A89FAA"/>
<path d="M568.7 528.902C569.014 523.785 573.6 522.42 576.609 519.544C581.481 514.887 588.123 510.641 586.923 502.681C585.568 493.695 579.579 487.542 571.812 483.256C565.295 479.66 557.366 479.575 551.134 475.189C566.716 473.919 577.971 481.418 587.148 493.03C592.629 499.964 592.635 506.411 586.394 513.846C581.393 519.804 576.149 525.72 568.695 528.904L568.7 528.902Z" fill="#A89FAA"/>
<path d="M498.582 557.892C493.016 559.069 487.445 560.247 481.879 561.423C476.322 558.777 470.4 562.981 464.828 560.517C466.548 557.876 469.155 558.291 471.768 558.352C474.948 558.431 477.714 557.836 476.195 553.503C488.805 553.397 501.248 552.147 513.318 548.211C514.964 551.734 512.979 553.015 509.97 553.921C506.123 555.079 501.998 555.481 498.582 557.892Z" fill="#BDC9DC"/>
<path d="M498.582 557.892C501.998 555.481 506.123 555.079 509.97 553.92C512.979 553.015 514.964 551.733 513.318 548.211C520.98 546.27 528.646 544.328 536.312 542.386C536.962 550.035 543.024 543.135 545.52 545.818C543.835 549.227 540.341 549.336 537.345 550.033C527.057 552.437 516.695 554.482 506.75 558.224C504.239 559.167 501.176 560.764 498.588 557.895L498.582 557.892Z" fill="#A89FAA"/>
<path d="M455.862 504.273C456.403 504.193 456.941 504.119 457.482 504.039C456.648 507.328 454.218 509.61 451.995 511.822C444.464 519.325 445.304 528.889 445.367 538.137C445.402 543.142 449.556 545.376 453.756 546.767C457.391 547.972 460.768 549.392 463.154 552.53C454.54 553.671 444.543 547.232 442.437 539.185C439.016 526.12 444.818 511.017 455.86 504.268L455.862 504.273Z" fill="#BDC9DC"/>
<path d="M357.567 504.1C342.157 502.36 328.645 508.159 315.334 514.741C322.379 506.352 331.127 500.267 342.225 500.807C347.145 501.047 353.743 497.527 357.568 504.105L357.567 504.1Z" fill="#D7E2F4"/>
<path d="M396.047 553.747C394.517 553.826 392.985 553.899 391.458 553.967C388.482 547.243 389.602 539.448 385.897 532.927C387.196 532.032 388.499 531.136 389.801 530.235C394.653 537.335 398.611 544.672 396.05 553.741L396.047 553.747Z" fill="#DEE5F0"/>
<path d="M389.798 530.241C388.494 531.137 387.192 532.039 385.894 532.934C385.006 532.438 384.114 531.948 383.221 531.454C385.099 521.356 377.402 516.873 371.43 511.404C369.496 509.634 366.372 509.472 365.111 506.768C372.777 504.289 376.583 510.731 380.425 514.687C384.498 518.882 388.376 524.048 389.804 530.245L389.798 530.241Z" fill="#D7E2F4"/>
<path d="M464.827 560.512C470.393 562.977 476.321 558.772 481.878 561.418C472.461 566.861 462.319 565.862 452.163 564.789C453.323 564.083 454.483 563.382 455.644 562.681C458.706 561.956 461.765 561.237 464.827 560.512Z" fill="#A89FAA"/>
<path d="M442.696 564.569C435.227 565.092 427.773 567.556 420.287 564.71C427.753 563.982 435.191 558.948 442.696 564.569Z" fill="#BDC9DC"/>
<path d="M397.817 308.934C398.557 311.214 397.107 312.012 395.518 312.427C393.591 312.931 391.247 314.444 389.838 311.878C388.784 309.96 390.524 309.006 392.096 308.549C394.035 307.989 396.134 306.782 397.817 308.934Z" fill="white"/>
<path d="M552.686 537.47C555.984 534.334 559.86 532.253 564.274 531.171C562.125 536.426 557.741 537.559 552.686 537.47Z" fill="#A89FAA"/>
<path d="M411.791 563.256C408.509 563.944 405.673 563.658 404.44 559.885C407.815 558.993 411.165 558.16 411.791 563.256Z" fill="#BDC9DC"/>
<path d="M455.644 562.681C454.483 563.382 453.323 564.083 452.163 564.789C450.731 565.036 449.297 565.278 447.862 565.521C447.667 564.9 447.471 564.279 447.28 563.657C449.77 560.786 452.44 559.45 455.642 562.676L455.644 562.681Z" fill="#BDC9DC"/>
<path d="M417.471 564.876C415.612 565.383 414.228 564.698 413.173 563.174C415.247 562.111 416.619 562.826 417.471 564.876Z" fill="#BDC9DC"/>
<path d="M469.497 553.26C470.89 552.682 472.13 552.801 473.128 554.05C471.411 556.107 470.432 554.789 469.497 553.26Z" fill="#BDC9DC"/>
<path d="M365.095 506.767C363.071 507.501 361.525 506.885 360.385 505.116C362.574 503.891 364.276 504.066 365.095 506.767Z" fill="#BDC9DC"/>
<path d="M457.12 193.534C455.345 194.634 453.672 195.565 452.254 197.437C448.336 202.624 443.396 205.869 436.309 206.623C428.634 207.437 421.165 210.205 413.606 212.118C410.487 212.906 407.397 214.122 404.106 213.426C397.709 212.074 391.361 209.615 385.167 214.384C383.914 215.352 382.04 214.428 381.374 212.544C381.439 211.996 381.724 211.621 382.238 211.417C385.242 211.506 388.318 211.707 388.527 207.405C388.688 206.9 388.82 206.387 388.919 205.867C392.677 201.726 392.762 197.594 387.792 194.719C382.15 191.454 376.143 193.745 373.026 199.635C372.249 200.913 371.471 202.185 370.694 203.463C369.129 194.495 373.407 189.739 382.105 191.003C384.379 191.332 386.714 191.556 388.062 189.734C397.118 177.476 411.634 180.629 423.706 177.018C434.206 173.88 444.781 178.333 455.366 177.648C450.475 181.716 450.503 185.839 455.077 190.18C455.99 191.047 456.452 192.397 457.118 193.524L457.12 193.534Z" fill="#BDC9DC"/>
<path d="M355.875 184.066C360.411 170.859 369.025 161.025 380.875 153.868C383.941 155.485 383.931 158.032 382.762 160.732C378.048 171.595 371.721 180.793 358.963 183.161C357.915 183.354 356.902 183.758 355.875 184.066Z" fill="#DEE5F0"/>
<path d="M457.12 193.534C456.449 192.408 455.993 191.057 455.08 190.189C450.505 185.849 450.477 181.725 455.369 177.658C456.082 177.075 456.794 176.487 457.506 175.9C461.218 174.509 464.652 176.145 468.169 176.881C468.992 178.046 469.816 179.216 470.634 180.382C470.646 183.826 471.656 187.39 469.431 190.569C468.453 191.085 467.475 191.601 466.501 192.111C465.055 191.631 463.994 191.996 463.476 193.515C462.423 193.767 461.37 194.019 460.317 194.271C459.483 193.167 458.442 193.027 457.245 193.606L457.125 193.533L457.12 193.534Z" fill="#674447"/>
<path d="M388.92 205.872C388.821 206.392 388.689 206.905 388.527 207.406C386.107 208.234 383.22 208.33 382.238 211.417C381.729 211.62 381.439 211.996 381.374 212.544C379.062 211.93 376.37 212.763 374.438 210.703C375.666 206.8 373.203 203.367 373.023 199.642C385.875 194.826 386.913 195.235 388.916 205.873L388.92 205.872Z" fill="#674447"/>
<path d="M469.431 190.569C471.661 187.389 470.651 183.825 470.634 180.382C474.943 180.194 476.573 182.822 475.831 186.439C475.225 189.38 474.005 193.018 469.431 190.569Z" fill="#BDC9DC"/>
<path d="M468.169 176.881C464.652 176.145 461.218 174.509 457.506 175.9C456.247 172.407 458.591 171.43 461.109 171.631C464.32 171.886 468.414 171.682 468.169 176.881Z" fill="#BDC9DC"/>
<path d="M373.028 199.64C373.208 203.366 375.676 206.797 374.442 210.702C373.814 210.91 373.187 211.123 372.56 211.336C371.945 209.249 371.332 207.167 370.717 205.081C370.743 204.543 370.734 204.009 370.697 203.472C371.474 202.195 372.252 200.923 373.029 199.645L373.028 199.64Z" fill="#BC8774"/>
<path d="M356.001 217.263C352.639 214.925 351.732 211.89 353.411 208.12C356.466 210.55 357.147 213.644 356.001 217.263Z" fill="#DEE5F0"/>
<path d="M492.516 192.746C494.544 196.104 494.372 199.508 492.717 202.935C489.146 199.606 490.999 196.174 492.516 192.746Z" fill="#BDC9DC"/>
<path d="M365.976 236.468C363.437 235.473 361.975 233.663 361.733 230.915C364.675 231.604 367.178 232.624 365.976 236.468Z" fill="#DEE5F0"/>
<path d="M370.717 205.081C371.332 207.167 371.945 209.249 372.56 211.336C367.575 210.536 367.18 208.386 370.717 205.081Z" fill="#BDC9DC"/>
<path d="M463.471 193.516C463.996 192.001 465.05 191.633 466.496 192.112C466.45 194.663 465.615 195.504 463.471 193.516Z" fill="#BDC9DC"/>
<path d="M457.246 193.611C458.444 193.032 459.485 193.172 460.318 194.276C460.256 195.412 459.605 196.33 458.555 195.919C457.916 195.668 457.668 194.414 457.246 193.611Z" fill="#BDC9DC"/>
<path d="M628.791 470.904C620.145 468.307 620.17 462.493 622.336 455.152C629.06 432.379 648.684 420.03 672.167 423.914C677.977 424.874 683.832 425.424 689.248 427.955C692.584 441.852 690.283 444.383 676.762 441.698C660.373 438.44 645.384 446.59 638.605 463.386C636.566 468.439 633.948 470.845 628.792 470.909L628.791 470.904Z" fill="#674447"/>
<path d="M533.786 531.513C515.455 535.948 499.225 539.717 482.399 536.281C478.571 535.5 475.409 534.039 472.411 531.547C467.07 527.109 466.748 523.305 472.282 518.805C484.327 509.005 497.365 501.056 512.772 497.572C520.575 495.81 527.868 492.316 535.976 491.387C545.522 490.294 552.958 494.283 558.774 500.813C564.006 506.688 557.389 522.227 548.335 526.496C543.001 529.009 536.887 529.522 533.787 531.518L533.786 531.513Z" fill="#F4A6E7"/>
<path d="M388.92 205.872C386.918 195.233 385.881 194.829 373.028 199.64C376.144 193.75 382.147 191.46 387.793 194.724C392.763 197.599 392.683 201.73 388.92 205.872Z" fill="#BC8774"/>
<path d="M382.243 211.415C383.22 208.33 386.107 208.234 388.532 207.404C388.328 211.704 385.252 211.503 382.243 211.415Z" fill="#BC8774"/>
</g>
<defs>
<clipPath id="clip0_101_140">
<rect width="800.714" height="1227.56" fill="white" transform="translate(0 134.594) rotate(-14.8041)"/>
</clipPath>
</defs>
</svg>
