<svg width="793" height="819" viewBox="0 0 793 819" fill="none" xmlns="http://www.w3.org/2000/svg">
<g clip-path="url(#clip0_20_320)">
<rect opacity="0.1" x="97.5414" y="-34.2962" width="126.047" height="121.802" transform="rotate(45 97.5414 -34.2962)" stroke="#FFEAEA" stroke-width="2"/>
<rect opacity="0.1" x="275.626" y="-34.2962" width="126.047" height="121.802" transform="rotate(45 275.626 -34.2962)" stroke="#FFEAEA" stroke-width="2"/>
<rect opacity="0.1" x="453.71" y="-34.2962" width="126.047" height="121.802" transform="rotate(45 453.71 -34.2962)" stroke="#FFEAEA" stroke-width="2"/>
<rect opacity="0.1" x="631.794" y="-34.2962" width="126.047" height="121.802" transform="rotate(45 631.794 -34.2962)" stroke="#FFEAEA" stroke-width="2"/>
<rect opacity="0.1" x="809.878" y="-34.2962" width="126.047" height="121.802" transform="rotate(45 809.878 -34.2962)" stroke="#FFEAEA" stroke-width="2"/>
<rect opacity="0.1" x="97.5414" y="143.788" width="126.047" height="121.802" transform="rotate(45 97.5414 143.788)" stroke="#FFEAEA" stroke-width="2"/>
<rect opacity="0.1" x="275.626" y="143.788" width="126.047" height="121.802" transform="rotate(45 275.626 143.788)" stroke="#FFEAEA" stroke-width="2"/>
<rect opacity="0.1" x="453.71" y="143.788" width="126.047" height="121.802" transform="rotate(45 453.71 143.788)" stroke="#FFEAEA" stroke-width="2"/>
<rect opacity="0.1" x="631.794" y="143.788" width="126.047" height="121.802" transform="rotate(45 631.794 143.788)" stroke="#FFEAEA" stroke-width="2"/>
<rect opacity="0.1" x="809.878" y="143.788" width="126.047" height="121.802" transform="rotate(45 809.878 143.788)" stroke="#FFEAEA" stroke-width="2"/>
<rect opacity="0.1" x="97.5414" y="321.872" width="126.047" height="121.802" transform="rotate(45 97.5414 321.872)" stroke="#FFEAEA" stroke-width="2"/>
<rect opacity="0.1" x="275.626" y="321.872" width="126.047" height="121.802" transform="rotate(45 275.626 321.872)" stroke="#FFEAEA" stroke-width="2"/>
<rect opacity="0.1" x="453.71" y="321.872" width="126.047" height="121.802" transform="rotate(45 453.71 321.872)" stroke="#FFEAEA" stroke-width="2"/>
<rect opacity="0.1" x="631.794" y="321.872" width="126.047" height="121.802" transform="rotate(45 631.794 321.872)" stroke="#FFEAEA" stroke-width="2"/>
<rect opacity="0.1" x="809.878" y="321.872" width="126.047" height="121.802" transform="rotate(45 809.878 321.872)" stroke="#FFEAEA" stroke-width="2"/>
<rect opacity="0.1" x="97.5415" y="499.957" width="126.047" height="121.802" transform="rotate(45 97.5415 499.957)" stroke="#FFEAEA" stroke-width="2"/>
<rect opacity="0.1" x="275.626" y="499.957" width="126.047" height="121.802" transform="rotate(45 275.626 499.957)" stroke="#FFEAEA" stroke-width="2"/>
<rect opacity="0.1" x="453.71" y="499.957" width="126.047" height="121.802" transform="rotate(45 453.71 499.957)" stroke="#FFEAEA" stroke-width="2"/>
<rect opacity="0.1" x="631.794" y="499.957" width="126.047" height="121.802" transform="rotate(45 631.794 499.957)" stroke="#FFEAEA" stroke-width="2"/>
<rect opacity="0.1" x="809.878" y="499.957" width="126.047" height="121.802" transform="rotate(45 809.878 499.957)" stroke="#FFEAEA" stroke-width="2"/>
<rect opacity="0.1" x="97.5414" y="678.041" width="126.047" height="121.802" transform="rotate(45 97.5414 678.041)" stroke="#FFEAEA" stroke-width="2"/>
<rect opacity="0.1" x="275.626" y="678.041" width="126.047" height="121.802" transform="rotate(45 275.626 678.041)" stroke="#FFEAEA" stroke-width="2"/>
<rect opacity="0.1" x="453.71" y="678.041" width="126.047" height="121.802" transform="rotate(45 453.71 678.041)" stroke="#FFEAEA" stroke-width="2"/>
<rect opacity="0.1" x="631.794" y="678.041" width="126.047" height="121.802" transform="rotate(45 631.794 678.041)" stroke="#FFEAEA" stroke-width="2"/>
<rect opacity="0.1" x="809.878" y="678.041" width="126.047" height="121.802" transform="rotate(45 809.878 678.041)" stroke="#FFEAEA" stroke-width="2"/>
</g>
<defs>
<clipPath id="clip0_20_320">
<rect width="952" height="819" fill="white"/>
</clipPath>
</defs>
</svg>
